<?xml version="1.0" encoding="UTF-8" standalone="no"?>
<svg
   xmlns:dc="http://purl.org/dc/elements/1.1/"
   xmlns:cc="http://creativecommons.org/ns#"
   xmlns:rdf="http://www.w3.org/1999/02/22-rdf-syntax-ns#"
   xmlns:svg="http://www.w3.org/2000/svg"
   xmlns="http://www.w3.org/2000/svg"
   xmlns:sodipodi="http://sodipodi.sourceforge.net/DTD/sodipodi-0.dtd"
   xmlns:inkscape="http://www.inkscape.org/namespaces/inkscape"
   viewBox="0 0 120 120"
   version="1.1"
   id="svg4"
   sodipodi:docname="auth-logo.svg"
   width="120"
   height="120"
   inkscape:version="0.92.2 (5c3e80d, 2017-08-06)"
   inkscape:export-filename="Y:\GitHub\where-have-i-been\img\auth-logo.png"
   inkscape:export-xdpi="96"
   inkscape:export-ydpi="96">
  <metadata
     id="metadata10">
    <rdf:RDF>
      <cc:Work
         rdf:about="">
        <dc:format>image/svg+xml</dc:format>
        <dc:type
           rdf:resource="http://purl.org/dc/dcmitype/StillImage" />
        <dc:title></dc:title>
      </cc:Work>
    </rdf:RDF>
  </metadata>
  <defs
     id="defs8">
    <pattern
       y="0"
       x="0"
       height="6"
       width="6"
       patternUnits="userSpaceOnUse"
       id="EMFhbasepattern" />
  </defs>
  <sodipodi:namedview
     pagecolor="#ffffff"
     bordercolor="#666666"
     borderopacity="1"
     objecttolerance="10"
     gridtolerance="10"
     guidetolerance="10"
     inkscape:pageopacity="0"
     inkscape:pageshadow="2"
     inkscape:window-width="1920"
     inkscape:window-height="1017"
     id="namedview6"
     showgrid="false"
     inkscape:zoom="5.2149125"
     inkscape:cx="28.961935"
     inkscape:cy="51.634739"
     inkscape:window-x="-8"
     inkscape:window-y="-8"
     inkscape:window-maximized="1"
     inkscape:current-layer="svg4" />
  <g
     id="g818"
     transform="matrix(0.19098346,0,0,0.19098346,11.108234,11.108234)">
    <path
       inkscape:connector-curvature="0"
       style="fill:#454837;stroke-width:0.8888889"
       id="path2"
       d="M 452.00444,60.595555 339.12622,110.73423 184.15911,59.078225 a 42.659556,42.659556 0 0 0 -30.82133,1.488 L 25.337778,117.45512 A 42.666667,42.666667 0 0 0 0,156.44445 v 255.97067 c 0,31.05599 31.992,51.43466 59.995556,38.98932 l 112.878224,-50.13866 154.968,51.656 a 42.659556,42.659556 0 0 0 30.82133,-1.488 l 128,-56.88889 A 42.666667,42.666667 0 0 0 512,355.55556 V 99.584895 c 0,-31.056 -31.992,-51.43467 -59.99556,-38.98934 z M 320,405.33334 192,362.66667 v -256 l 128,42.66667 z m -277.333333,7.11111 v -256 L 149.33333,109.03734 v 256 z M 469.33333,355.55556 362.66667,402.96267 v -256 L 469.33333,99.555555 Z" />
    <path
       sodipodi:nodetypes="ccccccccccc"
       inkscape:connector-curvature="0"
       id="path25"
       d="m 407.29833,258.82717 c -73.5839,27.85236 -73.5839,27.85236 -73.5839,27.85236 l -87.56092,-75.79902 -77.1059,16.98944 -128.074203,68.61117 v 13.0688 l 130.034523,-69.26461 72.53181,-16.98944 85.60062,75.79902 83.77902,-34.06156 z"
       style="fill:#454837;stroke:#454837;stroke-width:0.85190785px;stroke-linecap:butt;stroke-linejoin:miter;stroke-opacity:1" />
    <path
       inkscape:connector-curvature="0"
       style="fill:#2a7fff;fill-opacity:1;fill-rule:nonzero;stroke:none;stroke-width:0.33968437"
       d="m 401.28787,265.69032 c -49.34898,-71.55059 -58.5068,-78.88772 -58.5068,-105.19268 0,-36.00627 29.21264,-65.218901 65.21892,-65.218901 36.00627,0 65.21891,29.212631 65.21891,65.218901 0,26.30496 -9.15782,33.64209 -58.5068,105.19268 -3.26095,4.67402 -10.16328,4.67402 -13.42423,0 z m 6.71212,-78.01813 c 15.00035,0 27.17454,-12.1742 27.17454,-27.17455 0,-15.00035 -12.17419,-27.17454 -27.17454,-27.17454 -15.00036,0 -27.17455,12.17419 -27.17455,27.17454 0,15.00035 12.17419,27.17455 27.17455,27.17455 z"
       id="path15" />
  </g>
</svg>
