<?xml version="1.0" encoding="UTF-8" standalone="no"?>
<svg
   xmlns:dc="http://purl.org/dc/elements/1.1/"
   xmlns:cc="http://creativecommons.org/ns#"
   xmlns:rdf="http://www.w3.org/1999/02/22-rdf-syntax-ns#"
   xmlns:svg="http://www.w3.org/2000/svg"
   xmlns="http://www.w3.org/2000/svg"
   xmlns:sodipodi="http://sodipodi.sourceforge.net/DTD/sodipodi-0.dtd"
   xmlns:inkscape="http://www.inkscape.org/namespaces/inkscape"
   viewBox="0 0 1400 560"
   version="1.1"
   id="svg4"
   sodipodi:docname="marquee.svg"
   width="1400"
   height="560"
   inkscape:version="0.92.2 (5c3e80d, 2017-08-06)"
   inkscape:export-filename="Y:\GitHub\where-have-i-been\img\marquee.png"
   inkscape:export-xdpi="96"
   inkscape:export-ydpi="96">
  <metadata
     id="metadata10">
    <rdf:RDF>
      <cc:Work
         rdf:about="">
        <dc:format>image/svg+xml</dc:format>
        <dc:type
           rdf:resource="http://purl.org/dc/dcmitype/StillImage" />
        <dc:title></dc:title>
      </cc:Work>
    </rdf:RDF>
  </metadata>
  <defs
     id="defs8">
    <pattern
       y="0"
       x="0"
       height="6"
       width="6"
       patternUnits="userSpaceOnUse"
       id="EMFhbasepattern" />
  </defs>
  <sodipodi:namedview
     pagecolor="#ffffff"
     bordercolor="#666666"
     borderopacity="1"
     objecttolerance="10"
     gridtolerance="10"
     guidetolerance="10"
     inkscape:pageopacity="0"
     inkscape:pageshadow="2"
     inkscape:window-width="1920"
     inkscape:window-height="1017"
     id="namedview6"
     showgrid="false"
     inkscape:zoom="0.921875"
     inkscape:cx="746.03028"
     inkscape:cy="82.127725"
     inkscape:window-x="-8"
     inkscape:window-y="-8"
     inkscape:window-maximized="1"
     inkscape:current-layer="svg4" />
  <g
     id="g818"
     transform="matrix(0.98366448,0,0,0.98366448,448.18189,-130.00064)">
    <path
       inkscape:connector-curvature="0"
       style="fill:#454837;stroke-width:0.8888889"
       id="path2"
       d="M 452.00444,228.59555 339.12622,278.73423 184.15911,227.07822 a 42.659556,42.659556 0 0 0 -30.82133,1.488 L 25.337778,285.45512 A 42.666667,42.666667 0 0 0 0,324.44445 v 255.97067 c 0,31.05599 31.992,51.43466 59.995556,38.98932 l 112.878224,-50.13866 154.968,51.656 a 42.659556,42.659556 0 0 0 30.82133,-1.488 l 128,-56.88889 A 42.666667,42.666667 0 0 0 512,523.55556 V 267.5849 c 0,-31.05601 -31.992,-51.43468 -59.99556,-38.98935 z M 320,573.33334 192,530.66667 v -256 l 128,42.66667 z m -277.333333,7.11111 v -256 L 149.33333,277.03734 v 256 z M 469.33333,523.55556 362.66667,570.96267 v -256 l 106.66666,-47.40711 z" />
    <path
       sodipodi:nodetypes="ccccccccccc"
       inkscape:connector-curvature="0"
       id="path25"
       d="m 407.29833,426.82717 c -73.5839,27.85236 -73.5839,27.85236 -73.5839,27.85236 l -87.56092,-75.79902 -77.1059,16.98944 -128.074203,68.61117 v 13.0688 l 130.034523,-69.26461 72.53181,-16.98944 85.60062,75.79902 83.77902,-34.06156 z"
       style="fill:#454837;stroke:#454837;stroke-width:0.85190785px;stroke-linecap:butt;stroke-linejoin:miter;stroke-opacity:1" />
    <path
       inkscape:connector-curvature="0"
       style="fill:#2a7fff;fill-opacity:1;fill-rule:nonzero;stroke:none;stroke-width:0.33968437"
       d="m 401.28787,433.69032 c -49.34898,-71.55059 -58.5068,-78.88772 -58.5068,-105.19268 0,-36.00627 29.21264,-65.2189 65.21892,-65.2189 36.00627,0 65.21891,29.21263 65.21891,65.2189 0,26.30496 -9.15782,33.64209 -58.5068,105.19268 -3.26095,4.67402 -10.16328,4.67402 -13.42423,0 z m 6.71212,-78.01813 c 15.00035,0 27.17454,-12.1742 27.17454,-27.17455 0,-15.00035 -12.17419,-27.17454 -27.17454,-27.17454 -15.00036,0 -27.17455,12.17419 -27.17455,27.17454 0,15.00035 12.17419,27.17455 27.17455,27.17455 z"
       id="path15" />
  </g>
  <g
     id="g894"
     transform="matrix(1.0118917,0,0,1.0118917,234.67753,-20.239623)">
    <path
       inkscape:connector-curvature="0"
       id="path844"
       d="M 42.929499,96.091636 C 42.40264,93.847254 31.20028,41.097708 29.798627,34.261127 l -0.611593,-2.983051 h 7.559469 7.55947 l 2.869402,15.457627 c 4.302449,23.177523 5.114171,27.058567 5.565012,26.607725 0.226482,-0.226481 2.451231,-9.783838 4.943889,-21.238568 l 4.532105,-20.826784 h 6.720225 6.720225 l 4.686985,21.158655 c 2.577842,11.637261 4.910808,20.934833 5.184369,20.661273 0.439196,-0.439196 7.777166,-38.937759 7.815966,-41.006368 0.019,-1.012758 15.201699,-1.090894 15.201699,-0.07823 0,0.961643 -12.961483,62.145743 -13.689486,64.620607 -0.465302,1.581803 -1.868453,1.898305 -8.415762,1.898305 H 78.583244 L 73.88368,78.735703 C 70.407975,64.094529 68.945862,59.504072 68.269237,61.108585 c -0.81625,1.935615 -8.536944,35.204138 -8.536944,36.785754 0,0.350886 -3.651718,0.637974 -8.114927,0.637974 -7.522556,0 -8.15675,-0.178164 -8.687867,-2.440677 z"
       style="fill:#2a7fff;fill-opacity:1;stroke:#2a7fff;stroke-width:1.08474576;stroke-opacity:1" />
    <path
       inkscape:connector-curvature="0"
       id="path846"
       d="m 115.05433,62.735703 v -35.79661 h 7.59322 7.59322 V 40.687502 54.43591 l 2.44068,-2.223025 c 8.22751,-7.493804 20.35866,-5.817823 25.13096,3.471971 1.94457,3.78532 2.28094,6.795862 2.63607,23.59322 l 0.40709,19.254237 h -7.71418 -7.71418 V 81.789371 c 0,-9.208619 -0.46607,-17.968802 -1.03571,-19.467072 -1.38444,-3.641334 -7.56683,-4.935264 -11.44366,-2.395074 l -2.70707,1.773746 v 18.415671 18.415671 h -7.59322 -7.59322 z"
       style="fill:#2a7fff;fill-opacity:1;stroke:#2a7fff;stroke-width:1.08474576;stroke-opacity:1" />
    <path
       inkscape:connector-curvature="0"
       id="path850"
       d="m 183.42572,97.325437 c -4.7806,-1.907923 -9.76075,-6.409768 -12.23437,-11.059355 -3.35107,-6.298919 -3.37719,-19.906855 -0.0504,-26.242243 4.40982,-8.397768 11.34078,-12.474576 21.20797,-12.474576 13.70563,0 22.47786,9.834614 22.49593,25.220339 l 0.006,5.152542 h -15.72882 c -8.65084,0 -15.72881,0.268309 -15.72881,0.596241 0,0.327933 0.69559,1.941375 1.54577,3.585427 2.91045,5.628193 11.05512,7.218399 18.23158,3.559628 l 3.96489,-2.021416 3.0137,3.145619 c 3.66976,3.830408 2.89643,5.635342 -3.97032,9.266566 -3.6632,1.937148 -6.36568,2.463095 -12.37996,2.409347 -4.23159,-0.03781 -8.89955,-0.549971 -10.37325,-1.138119 z m 16.54693,-31.877869 c -0.2699,-3.749976 -3.74297,-7.050848 -7.41868,-7.050848 -3.30993,0 -7.80741,4.086994 -8.70708,7.91237 l -0.71285,3.031013 8.53642,-0.319148 8.53641,-0.31915 z"
       style="fill:#2a7fff;fill-opacity:1;stroke:#2a7fff;stroke-width:1.08474576;stroke-opacity:1" />
    <path
       inkscape:connector-curvature="0"
       id="path852"
       d="M 222.44416,73.583161 V 48.634008 h 7.05084 c 6.79774,0 7.05085,0.09735 7.05085,2.711865 0,3.43235 0.22687,3.402856 4.1721,-0.542373 2.40277,-2.40277 4.26945,-3.254237 7.13429,-3.254237 h 3.88005 v 7.050847 7.050848 h -4.63999 c -2.552,0 -5.72488,0.759882 -7.05085,1.688628 -2.31434,1.621026 -2.41085,2.359272 -2.41085,18.440678 v 16.752049 h -7.59322 -7.59322 z"
       style="fill:#2a7fff;fill-opacity:1;stroke:#2a7fff;stroke-width:1.08474576;stroke-opacity:1" />
    <path
       inkscape:connector-curvature="0"
       id="path854"
       d="m 269.33498,96.292028 c -9.34914,-4.739707 -14.05239,-14.079826 -12.98996,-25.796572 1.30443,-14.385442 10.20922,-22.946193 23.86835,-22.946193 13.70562,0 22.47786,9.834614 22.49592,25.220339 l 0.006,5.152542 h -15.72881 c -8.65085,0 -15.72881,0.268309 -15.72881,0.596241 0,0.327933 0.75558,2.057378 1.67907,3.843212 2.8837,5.576465 10.95279,7.000345 18.06592,3.187934 l 3.98406,-2.135326 2.77954,3.303298 c 1.52875,1.816815 2.77954,3.747056 2.77954,4.289427 0,0.54237 -2.03822,2.335426 -4.52938,3.984569 -3.8439,2.544656 -5.85494,3.047754 -13.28814,3.32428 -7.2576,0.269993 -9.55306,-0.07686 -13.39335,-2.023751 z m 18.38356,-30.831575 c -0.4413,-4.055187 -1.67916,-5.573136 -5.28226,-6.477455 -3.79414,-0.952268 -8.4469,1.11368 -9.9531,4.419436 -2.51276,5.5149 -1.94354,5.960064 7.18132,5.616186 l 8.40678,-0.316815 z"
       style="fill:#2a7fff;fill-opacity:1;stroke:#2a7fff;stroke-width:1.08474576;stroke-opacity:1" />
    <path
       inkscape:connector-curvature="0"
       id="path856"
       d="M 335.25772,64.905195 V 31.278076 h 7.59322 7.59322 V 44.837398 58.39672 h 12.47457 12.47458 V 44.837398 31.278076 h 7.59322 7.59322 v 33.627119 33.627118 h -7.59322 -7.59322 V 83.888246 69.244178 h -12.47458 -12.47457 v 14.644068 14.644067 h -7.59322 -7.59322 z"
       style="fill:#2a7fff;fill-opacity:1;stroke:#2a7fff;stroke-width:1.08474576;stroke-opacity:1" />
    <path
       inkscape:connector-curvature="0"
       id="path858"
       d="m 407.12888,96.74828 c -10.3921,-5.123104 -10.30802,-20.20276 0.14252,-25.560201 2.83871,-1.455261 7.32074,-2.473614 12.3253,-2.800409 l 7.86441,-0.513541 v -3.576477 c 0,-4.036019 -2.35297,-6.985678 -5.57253,-6.985678 -3.08686,0 -6.35968,1.973454 -6.35968,3.834776 0,1.244112 -1.64791,1.588953 -7.59322,1.588953 -8.5799,0 -9.11261,-0.678776 -5.14885,-6.560597 3.70534,-5.498361 8.56258,-7.814615 17.47355,-8.332552 6.54439,-0.380382 8.48895,-0.06008 12.56095,2.069004 8.60654,4.50001 9.19898,6.101382 9.88934,26.730687 0.33302,9.951402 0.99541,18.947696 1.47198,19.991763 0.78106,1.711122 0.10632,1.898305 -6.84278,1.898305 -4.2401,0 -7.71675,-0.366101 -7.72588,-0.813559 -0.009,-0.447457 -0.44928,-1.496911 -0.97809,-2.33212 -0.79333,-1.252987 -1.47998,-1.110709 -3.92629,0.81356 -3.63898,2.862421 -12.33616,3.133559 -17.58073,0.548086 z m 17.92137,-9.667306 c 1.87623,-1.314161 2.41086,-2.75747 2.41086,-6.508475 v -4.819847 h -4.52476 c -2.68808,0 -5.32998,0.728719 -6.50847,1.795242 -2.25186,2.0379 -2.65793,7.944116 -0.68203,9.920013 1.81562,1.815614 6.43403,1.623552 9.3044,-0.386933 z"
       style="fill:#2a7fff;fill-opacity:1;stroke:#2a7fff;stroke-width:1.08474576;stroke-opacity:1" />
    <path
       inkscape:connector-curvature="0"
       id="path860"
       d="m 463.76507,97.176381 c -1.81208,-4.824399 -15.69379,-47.016509 -15.69379,-47.699765 0,-0.463434 3.39813,-0.842608 7.55141,-0.842608 h 7.55141 l 1.07273,4.067797 c 0.59,2.237288 2.39065,9.367566 4.00143,15.845061 1.69007,6.796314 3.25478,11.154636 3.6997,10.305085 0.42405,-0.809699 2.35996,-7.939977 4.30203,-15.845061 l 3.53103,-14.372882 h 7.46716 c 4.10694,0 7.46941,0.366102 7.47215,0.81356 0.003,0.447457 -3.50141,11.674576 -7.787,24.949152 l -7.79199,24.135593 h -7.43349 c -4.95199,0 -7.60349,-0.452644 -7.94278,-1.355932 z"
       style="fill:#2a7fff;fill-opacity:1;stroke:#2a7fff;stroke-width:1.08474576;stroke-opacity:1" />
    <path
       inkscape:connector-curvature="0"
       id="path862"
       d="m 512.28533,96.161468 c -10.91899,-5.293524 -15.64506,-18.394527 -11.57714,-32.092697 3.16435,-10.655499 11.00709,-16.471862 22.21054,-16.471862 14.0598,0 22.77966,9.386438 22.77966,24.521002 v 5.804233 h -15.72881 c -8.65085,0 -15.72881,0.268309 -15.72881,0.596241 0,0.327933 0.69559,1.941375 1.54576,3.585427 2.91046,5.628193 11.05512,7.218399 18.23159,3.559628 l 3.96489,-2.021416 3.0137,3.145619 c 3.66976,3.830408 2.89643,5.635342 -3.97032,9.266566 -6.31018,3.3369 -17.97495,3.387471 -24.74106,0.107259 z M 531.5967,66.483006 c 0,-3.528789 -4.5234,-8.086286 -8.0258,-8.086286 -3.44239,0 -7.95812,4.006255 -8.86452,7.864407 l -0.7008,2.983051 h 8.79556 c 8.70065,0 8.79556,-0.0298 8.79556,-2.761172 z"
       style="fill:#2a7fff;fill-opacity:1;stroke:#2a7fff;stroke-width:1.08474576;stroke-opacity:1" />
    <path
       inkscape:connector-curvature="0"
       id="path864"
       d="M 579.32551,64.905195 V 31.278076 h 7.59322 7.59322 v 33.627119 33.627118 h -7.59322 -7.59322 z"
       style="fill:#2a7fff;fill-opacity:1;stroke:#2a7fff;stroke-width:1.08474576;stroke-opacity:1" />
    <path
       inkscape:connector-curvature="0"
       id="path866"
       d="M 631.39331,64.954639 V 31.095213 l 18.16949,0.362618 c 17.0354,0.339984 18.46744,0.531886 22.94297,3.074482 10.57879,6.009926 11.87386,19.700261 2.57023,27.170059 -2.32568,1.867265 -2.63701,2.541169 -1.37761,2.981977 0.89492,0.313233 3.21356,2.150725 5.15255,4.083315 3.18897,3.17846 3.52542,4.129985 3.52542,9.970336 0,8.217875 -2.85382,12.821587 -10.20786,16.467061 -4.81791,2.388288 -7.00647,2.684908 -23.04928,3.123927 l -17.72591,0.485075 z m 33.53117,19.020436 c 3.03316,-2.744967 3.0853,-9.57205 0.096,-12.561406 -1.78381,-1.783803 -3.61582,-2.169491 -10.30509,-2.169491 h -8.13559 v 8.796529 8.796529 l 8.03965,-0.405985 c 5.95224,-0.300574 8.62784,-0.938293 10.30508,-2.456176 z m -0.85827,-27.639667 c 2.25095,-2.779809 2.62806,-6.743281 0.94145,-9.89474 -1.29226,-2.414614 -7.33991,-4.300584 -13.81774,-4.309085 l -4.61017,-0.006 v 8.800376 8.800376 l 7.72375,-0.436431 c 6.47088,-0.365638 8.05448,-0.844874 9.76271,-2.954447 z"
       style="fill:#2a7fff;fill-opacity:1;stroke:#2a7fff;stroke-width:1.08474576;stroke-opacity:1" />
    <path
       inkscape:connector-curvature="0"
       id="path868"
       d="m 704.61365,96.49425 c -9.48412,-4.35064 -13.56438,-11.299787 -13.54873,-23.075026 0.0218,-16.422541 8.60675,-25.869961 23.50815,-25.869961 13.24781,0 21.96668,9.343174 22.01676,23.59322 l 0.0238,6.779661 h -15.18644 c -14.22782,0 -15.18644,0.130859 -15.18644,2.073064 0,1.140186 1.50186,3.336796 3.33746,4.881356 4.11103,3.459201 9.65921,3.69083 15.61951,0.652094 l 4.22926,-2.156198 2.95213,3.51213 c 2.77765,3.30454 2.84577,3.633387 1.15265,5.563635 -5.19636,5.924109 -20.2367,8.028445 -28.91813,4.046025 z m 17.8983,-30.425579 c 0,-3.722998 -4.28828,-7.671951 -8.33118,-7.671951 -3.42919,0 -7.94,4.59392 -7.94,8.086286 0,2.712961 0.14205,2.761172 8.13559,2.761172 h 8.13559 z"
       style="fill:#2a7fff;fill-opacity:1;stroke:#2a7fff;stroke-width:1.08474576;stroke-opacity:1" />
    <path
       inkscape:connector-curvature="0"
       id="path870"
       d="m 756.68145,96.475784 c -8.78951,-4.069406 -13.56346,-12.025231 -13.55328,-22.586596 0.008,-8.727573 1.67948,-13.865781 6.10121,-18.760103 5.15017,-5.700631 11.59364,-8.046582 20.00589,-7.283787 12.35388,1.120211 18.6228,8.220344 20.09092,22.754812 l 0.7396,7.322034 h -15.87861 c -17.7484,0 -18.76987,0.529868 -12.70782,6.591916 3.97614,3.976139 10.62988,4.338122 16.29205,0.886333 l 3.73402,-2.276353 2.96808,3.63634 c 2.80313,3.434258 2.86689,3.750349 1.14732,5.687845 -5.27547,5.944079 -20.28736,8.033315 -28.93938,4.027559 z m 17.8983,-30.278516 c 0,-4.333237 -2.11032,-6.666566 -6.70353,-7.411942 -3.32436,-0.539469 -4.44707,-0.184079 -6.7761,2.144954 -1.53667,1.536667 -2.79156,4.032786 -2.79156,5.552726 0,2.712961 0.14205,2.761172 8.1356,2.761172 h 8.13559 z"
       style="fill:#2a7fff;fill-opacity:1;stroke:#2a7fff;stroke-width:1.08474576;stroke-opacity:1" />
    <path
       inkscape:connector-curvature="0"
       id="path872"
       d="M 796.27467,73.583161 V 48.634008 h 7.05084 c 6.79774,0 7.05085,0.09735 7.05085,2.711865 0,3.136617 1.26755,3.479121 3.3926,0.916714 3.98721,-4.807801 14.38884,-6.099171 20.2659,-2.516026 5.89163,3.592029 6.71438,7.173203 6.71438,29.225488 v 19.560264 h -7.05085 -7.05084 V 81.789371 c 0,-9.208619 -0.46607,-17.968802 -1.03572,-19.467072 -1.38443,-3.641334 -7.56682,-4.935264 -11.44365,-2.395074 l -2.70707,1.773746 v 18.415671 18.415671 h -7.59322 -7.59322 z"
       style="fill:#2a7fff;fill-opacity:1;stroke:#2a7fff;stroke-width:1.08474576;stroke-opacity:1" />
    <path
       inkscape:connector-curvature="0"
       id="path874"
       d="m 862.45021,74.939093 c 0.0164,-5.153668 2.77728,-10.980945 7.65303,-16.15305 2.89148,-3.067228 5.55101,-6.747299 5.91008,-8.177934 0.99582,-3.967673 -1.13047,-8.314122 -4.47835,-9.154385 -3.51519,-0.882257 -5.89601,0.430417 -7.79407,4.297292 -1.31365,2.676262 -1.91647,2.882992 -8.40678,2.882992 -6.96478,0 -6.99166,-0.01189 -6.99166,-3.093821 0,-8.392708 9.84955,-15.362684 21.65358,-15.323033 13.67728,0.04594 20.63963,5.870689 20.64745,17.273802 0.004,6.438341 -3.133,12.412205 -8.29519,15.794598 -3.33295,2.183836 -6.87781,7.906159 -6.88314,11.111166 -0.004,2.259437 -0.48736,2.440678 -6.51253,2.440678 -5.47769,0 -6.50752,-0.300646 -6.50242,-1.898305 z"
       style="fill:#2a7fff;fill-opacity:1;stroke:#2a7fff;stroke-width:1.08474576;stroke-opacity:1" />
    <path
       inkscape:connector-curvature="0"
       id="path876"
       d="m 864.28233,97.327026 c -7.80361,-4.539715 -0.93569,-15.822556 7.78151,-12.783723 3.98539,1.389314 6.30386,6.245864 4.54799,9.52675 -2.22822,4.163455 -8.10345,5.715463 -12.3295,3.256973 z"
       style="fill:#2a7fff;fill-opacity:1;stroke:#2a7fff;stroke-width:1.08474576;stroke-opacity:1" />
  </g>
  <g
     id="g991"
     transform="matrix(0.99753571,0,0,0.99753571,241.08672,-88.42892)">
    <path
       inkscape:connector-curvature="0"
       id="path896"
       d="M 66.240767,607.27808 V 588.8374 l 7.864407,0.006 c 14.094595,0.0108 19.471186,2.89937 19.471186,10.46072 0,2.9745 -0.695309,4.6627 -2.549152,6.18931 -1.716922,1.41386 -2.100153,2.25653 -1.17385,2.58112 2.932063,1.02744 4.590799,3.8683 4.590799,7.8625 0,3.31927 -0.677737,4.73535 -3.337464,6.97336 -3.099836,2.60834 -4.103883,2.80829 -14.101695,2.80829 H 66.240767 Z m 18.905569,11.31234 c 3.945396,-3.94539 0.152347,-9.14285 -6.672355,-9.14285 -3.543133,0 -3.555248,0.0185 -3.555248,5.42373 v 5.42373 h 4.261501 c 2.427765,0 4.994996,-0.7335 5.966102,-1.70461 z m -1.478324,-14.60475 c 2.345349,-1.25519 2.789292,-5.34529 0.796484,-7.3381 -0.715932,-0.71593 -3.15661,-1.3017 -5.423729,-1.3017 h -4.122034 v 4.88136 c 0,4.72382 0.107325,4.88135 3.32555,4.88135 1.829053,0 4.269731,-0.50531 5.423729,-1.12291 z"
       style="fill:#454837;fill-opacity:1;stroke:none;stroke-width:0;stroke-opacity:0" />
    <path
       inkscape:connector-curvature="0"
       id="path898"
       d="m 100.95263,612.15943 v -13.55932 h 3.25424 c 2.16949,0 3.25424,0.54237 3.25424,1.62712 0,2.08455 1.52421,2.08455 3.25423,0 0.74272,-0.89492 2.26689,-1.62712 3.38706,-1.62712 1.61089,0 2.03667,0.80709 2.03667,3.86063 0,2.12334 -0.44717,3.58426 -0.99372,3.24648 -0.54654,-0.33779 -2.25502,-0.13461 -3.79661,0.4515 -2.71149,1.03091 -2.80289,1.36721 -2.80289,10.31285 v 9.24718 h -3.79661 -3.79661 z"
       style="fill:#454837;fill-opacity:1;stroke:none;stroke-width:0;stroke-opacity:0" />
    <path
       inkscape:connector-curvature="0"
       id="path900"
       d="m 125.02295,624.6062 c -4.56625,-2.78396 -7.15274,-8.72757 -6.25128,-14.36503 1.28514,-8.03678 5.55727,-11.64106 13.7981,-11.64106 3.55352,0 5.10352,0.7071 8.08456,3.68814 3.23943,3.23943 3.68813,4.36774 3.68813,9.2742 0,7.11094 -2.3941,11.73813 -7.08805,13.69939 -5.00992,2.09327 -7.9842,1.93384 -12.23146,-0.65564 z m 10.4246,-5.61287 c 1.92478,-1.92478 1.64246,-11.21952 -0.40291,-13.26489 -5.16974,-5.16974 -10.79913,2.4646 -8.02207,10.87919 0.98758,2.9924 1.77356,3.6874 4.17012,3.6874 1.62424,0 3.53892,-0.58577 4.25486,-1.3017 z"
       style="fill:#454837;fill-opacity:1;stroke:none;stroke-width:0;stroke-opacity:0" />
    <path
       inkscape:connector-curvature="0"
       id="path902"
       d="m 151.12421,612.43062 -3.1461,-13.28814 3.16782,-0.34769 c 1.7423,-0.19123 3.4044,-0.1111 3.69357,0.17807 0.28917,0.28916 1.06114,3.98461 1.71549,8.21209 0.65436,4.22749 1.54955,7.68635 1.98931,7.68635 0.43977,0 1.66815,-3.6843 2.72974,-8.18733 1.82144,-7.72613 2.08635,-8.16914 4.70269,-7.86441 2.46163,0.28671 3.00187,1.20175 4.81797,8.1604 1.125,4.31062 2.41935,7.60641 2.87632,7.32398 0.45697,-0.28242 1.16041,-3.35295 1.5632,-6.82339 0.92498,-7.96972 1.66956,-9.12433 5.6038,-8.68972 l 3.18332,0.35165 -3.11373,13.28814 -3.11373,13.28813 h -3.52719 c -3.48616,0 -3.55077,-0.0947 -5.5531,-8.13559 -1.11425,-4.47458 -2.33459,-8.13559 -2.71187,-8.13559 -0.37728,0 -1.59761,3.66101 -2.71186,8.13559 -1.99783,8.02283 -2.07437,8.13559 -5.52273,8.13559 h -3.49682 z"
       style="fill:#454837;fill-opacity:1;stroke:none;stroke-width:0;stroke-opacity:0" />
    <path
       inkscape:connector-curvature="0"
       id="path904"
       d="m 193.57703,625.79785 c -1.25997,-0.5407 -3.38357,-2.36613 -4.71911,-4.05651 l -2.42825,-3.07343 3.45928,-0.34709 c 2.27856,-0.22861 3.90754,0.26596 4.7726,1.44899 1.86731,2.55369 7.71481,1.78946 7.71481,-1.00827 0,-1.50181 -1.39867,-2.5517 -5.05787,-3.79661 -8.14174,-2.76992 -10.8862,-6.29116 -8.91237,-11.43486 2.87868,-7.50175 22.10583,-5.57988 22.10583,2.20961 0,1.25654 -7.13331,0.22443 -8.786,-1.27124 -2.61566,-2.36714 -6.64315,-1.05127 -6.19249,2.02323 0.25479,1.73819 1.62599,2.609 5.75815,3.65684 8.72674,2.21292 11.86083,8.37248 6.71827,13.20366 -2.80505,2.63521 -10.82454,3.99413 -14.43285,2.44568 z"
       style="fill:#454837;fill-opacity:1;stroke:none;stroke-width:0;stroke-opacity:0" />
    <path
       inkscape:connector-curvature="0"
       id="path906"
       d="m 223.52946,625.58484 c -4.28206,-1.70749 -7.5023,-5.32619 -8.24027,-9.25991 -1.77745,-9.47462 3.651,-17.72482 11.66254,-17.72482 8.23485,0 12.84836,4.49762 12.84836,12.52562 v 3.74557 h -8.81028 -8.81027 l 1.61134,2.44067 c 1.82629,2.76626 7.12402,3.75083 10.48981,1.94951 1.76677,-0.94555 2.38582,-0.76786 3.30436,0.94844 1.55957,2.91409 1.57766,2.87986 -2.55907,4.84286 -4.14661,1.9677 -7.50628,2.12318 -11.49652,0.53206 z m 8.67741,-17.00507 c 0,-4.65748 -5.32367,-6.07184 -8.07408,-2.14508 -2.5258,3.60608 -2.14281,4.09762 3.19272,4.09762 3.9774,0 4.88136,-0.36158 4.88136,-1.95254 z"
       style="fill:#454837;fill-opacity:1;stroke:none;stroke-width:0;stroke-opacity:0" />
    <path
       inkscape:connector-curvature="0"
       id="path908"
       d="m 253.04927,617.62173 c 0,-4.95694 0.0546,-6.98477 0.12146,-4.50631 0.0668,2.47847 0.0668,6.53415 0,9.01262 -0.0668,2.47847 -0.12146,0.45063 -0.12146,-4.50631 z"
       style="fill:#454837;fill-opacity:1;stroke:none;stroke-width:0;stroke-opacity:0" />
    <path
       inkscape:connector-curvature="0"
       id="path910"
       d="m 244.44699,612.44427 v -13.99831 h 4.02691 4.02691 v 1.72581 c 0,0.94921 0.0867,1.72582 0.19276,1.72582 0.10602,0 0.8153,-0.68907 1.57618,-1.53128 1.5074,-1.66851 3.40854,-2.44018 5.51786,-2.2397 l 1.3423,0.12759 0.1093,3.93103 0.10929,3.93104 h -2.71707 c -2.903,0 -4.67295,0.6271 -5.35222,1.89633 -0.23809,0.44489 -0.39488,4.25016 -0.39488,9.58392 v 8.84607 h -4.21867 -4.21867 z"
       style="fill:#454837;fill-opacity:1;stroke:none;stroke-width:0;stroke-opacity:0" />
    <path
       inkscape:connector-curvature="0"
       id="path912"
       d="m 277.81284,606.49978 v -19.94281 h 4.21867 4.21867 v 7.50844 7.50844 l 1.55012,-1.32684 c 4.25745,-3.64422 11.01277,-2.60187 13.61805,2.10127 l 1.13124,2.04217 0.12221,11.02607 0.12221,11.02607 h -4.245 -4.245 v -9.60693 c 0,-11.94638 -0.10218,-12.25346 -4.07733,-12.25346 -0.94242,0 -2.22267,0.26331 -2.845,0.58513 l -1.1315,0.58512 v 10.34507 10.34507 h -4.21867 -4.21867 z"
       style="fill:#454837;fill-opacity:1;stroke:none;stroke-width:0;stroke-opacity:0" />
    <path
       inkscape:connector-curvature="0"
       id="path914"
       d="m 308.49408,612.44427 v -13.99831 h 4.21867 4.21867 v 13.99831 13.99832 h -4.21867 -4.21867 z"
       style="fill:#454837;fill-opacity:1;stroke:none;stroke-width:0;stroke-opacity:0" />
    <path
       inkscape:connector-curvature="0"
       id="path916"
       d="m 309.94191,594.39649 c -1.30855,-0.71012 -1.83134,-1.66707 -1.83134,-3.35215 0,-2.78362 3.07796,-4.68193 6.11567,-3.77181 3.65943,1.09639 4.22051,5.59971 0.9087,7.29338 -1.16949,0.59808 -3.94565,0.50751 -5.19303,-0.16942 z"
       style="fill:#454837;fill-opacity:1;stroke:none;stroke-width:0;stroke-opacity:0" />
    <path
       inkscape:connector-curvature="0"
       id="path918"
       d="m 329.01216,626.28963 c -2.47626,-0.78314 -3.7753,-1.59764 -5.45587,-3.42084 -1.31251,-1.4239 -2.39436,-3.6557 -2.40406,-4.95942 -10e-4,-0.1582 1.7884,-0.28764 3.97684,-0.28764 h 3.97897 l 0.22663,1.13314 c 0.59778,2.98892 6.89754,3.67358 7.96511,0.86565 0.79722,-2.09684 -0.2777,-2.97654 -5.26826,-4.31148 -7.28205,-1.94789 -9.73088,-4.12738 -9.73088,-8.66064 0,-5.50183 5.11828,-8.949 12.59471,-8.48256 5.7134,0.35644 9.80843,3.22949 10.6487,7.47103 l 0.24692,1.24643 h -4.18957 -4.18956 l -0.49332,-1.36426 c -0.50746,-1.40334 -1.59251,-2.08738 -3.31109,-2.08738 -2.50012,0 -4.2693,2.23695 -3.1365,3.96581 0.70088,1.06968 1.68393,1.49076 5.98654,2.56425 1.77464,0.44277 3.85476,1.12549 4.62247,1.51715 5.61922,2.86671 6.11519,9.58854 0.9666,13.10008 -3.03723,2.07151 -9.29609,2.89295 -13.03438,1.71068 z"
       style="fill:#454837;fill-opacity:1;stroke:none;stroke-width:0;stroke-opacity:0" />
    <path
       inkscape:connector-curvature="0"
       id="path920"
       d="m 356.30129,626.28937 c -1.715,-0.63786 -3.13091,-1.86526 -4.02622,-3.49018 -0.525,-0.95283 -0.65594,-2.64989 -0.76198,-9.87552 l -0.12805,-8.72498 h -1.69443 -1.69443 v -2.87637 -2.87636 h 1.72582 1.72582 v -3.45164 -3.45164 h 4.21867 4.21868 v 3.45164 3.45164 h 2.30109 2.30109 v 2.87636 2.87637 h -2.30109 -2.30109 v 7.20146 c 0,8.59173 0.10909,8.90619 3.08987,8.90619 h 1.89583 v 2.85373 c 0,1.82238 -0.16808,2.95761 -0.46506,3.14116 -0.91219,0.56376 -6.57915,0.55547 -8.10452,-0.0119 z"
       style="fill:#454837;fill-opacity:1;stroke:none;stroke-width:0;stroke-opacity:0" />
    <path
       inkscape:connector-curvature="0"
       id="path922"
       d="m 375.719,626.29171 c -5.96065,-1.94396 -8.98204,-6.44182 -9.04423,-13.46392 -0.085,-9.60195 5.37567,-15.21923 14.27116,-14.68035 3.94603,0.23904 6.43492,1.36867 8.85869,4.02066 2.70536,2.9601 3.61274,6.03282 3.35695,11.36793 -0.30043,6.26629 -2.46522,9.9144 -7.16418,12.07311 -2.59938,1.19416 -7.676,1.53129 -10.27839,0.68257 z m 7.13645,-6.96881 c 0.64282,-0.54089 1.34542,-1.61953 1.56135,-2.39697 0.50611,-1.82222 0.50611,-7.14109 0,-8.96331 -0.54117,-1.94846 -2.32737,-3.38042 -4.21669,-3.38042 -2.22176,0 -3.33123,0.68484 -4.28945,2.64771 -0.71412,1.46284 -0.85698,2.38257 -0.83971,5.40612 0.0313,5.4767 1.39663,7.64548 4.82348,7.66178 1.37217,0.007 2.06622,-0.22198 2.96102,-0.97491 z"
       style="fill:#454837;fill-opacity:1;stroke:none;stroke-width:0;stroke-opacity:0" />
    <path
       inkscape:connector-curvature="0"
       id="path924"
       d="m 397.8532,612.44427 v -13.99831 h 3.79043 c 4.1372,0 4.24355,0.0662 4.25816,2.65254 0.005,0.86699 0.0991,0.82501 1.46203,-0.65127 1.69071,-1.83136 2.91595,-2.38479 5.2797,-2.38479 h 1.70085 v 3.9863 3.98631 l -3.03884,0.138 c -2.57766,0.11706 -3.18878,0.27887 -4.02691,1.06625 l -0.98807,0.92825 v 9.13752 9.13752 h -4.21867 -4.21868 z"
       style="fill:#454837;fill-opacity:1;stroke:none;stroke-width:0;stroke-opacity:0" />
    <path
       inkscape:connector-curvature="0"
       id="path926"
       d="m 419.80947,637.31055 c -0.32304,-0.13035 -0.4794,-1.12117 -0.4794,-3.03785 0,-2.69345 0.0458,-2.84452 0.86291,-2.84655 2.2064,-0.005 3.73434,-0.78577 4.50794,-2.30215 0.95843,-1.87867 0.95517,-2.4059 -0.0322,-5.2101 -0.43868,-1.24589 -2.59014,-7.48586 -4.78103,-13.8666 l -3.98342,-11.60134 4.49339,8.5e-4 4.49339,8.6e-4 2.07663,7.57357 c 1.14214,4.16547 2.20846,7.72521 2.36959,7.91054 0.16114,0.18534 0.75151,-1.19532 1.31194,-3.06812 1.63218,-5.45423 3.28943,-11.02032 3.49743,-11.74655 0.16866,-0.58885 0.72993,-0.67115 4.57681,-0.67115 2.41152,0 4.38459,0.15576 4.38459,0.34615 0,0.58346 -11.15979,32.33573 -11.97676,34.07676 -0.84596,1.80279 -2.51579,3.38633 -4.40621,4.17852 -1.17567,0.49266 -5.90118,0.67248 -6.9156,0.26316 z"
       style="fill:#454837;fill-opacity:1;stroke:none;stroke-width:0;stroke-opacity:0" />
    <path
       inkscape:connector-curvature="0"
       id="path928"
       d="m 460.51964,593.69036 c -2.04207,-2.04207 -1.51945,-4.8637 1.13409,-6.12288 1.6093,-0.76367 2.57586,-0.78781 4.18992,-0.10465 2.34994,0.99462 3.28174,2.95075 2.40507,5.04894 -0.74955,1.79391 -1.95974,2.48255 -4.36277,2.48255 -1.83407,0 -2.20669,-0.14434 -3.36631,-1.30396 z"
       style="fill:#454837;fill-opacity:1;stroke:none;stroke-width:0;stroke-opacity:0" />
    <path
       inkscape:connector-curvature="0"
       id="path930"
       d="m 459.59921,612.44427 v -13.99831 h 4.41043 4.41042 v 13.99831 13.99832 h -4.41042 -4.41043 z"
       style="fill:#454837;fill-opacity:1;stroke:none;stroke-width:0;stroke-opacity:0" />
    <path
       inkscape:connector-curvature="0"
       id="path932"
       d="m 473.78928,612.44427 v -13.99831 h 4.02691 4.02692 v 1.76554 1.76555 l 1.34748,-1.1831 c 1.98522,-1.74305 3.49786,-2.408 5.99226,-2.63419 2.99723,-0.27178 5.33881,0.43658 7.02841,2.12617 2.27087,2.27087 2.50653,3.74506 2.50653,15.67959 v 10.47707 h -4.21867 -4.21867 v -9.98884 -9.98883 l -0.94136,-0.94136 c -1.35303,-1.35303 -4.63817,-1.35351 -6.09768,-8.8e-4 l -1.01479,0.94048 v 9.98971 9.98972 h -4.21867 -4.21867 z"
       style="fill:#454837;fill-opacity:1;stroke:none;stroke-width:0;stroke-opacity:0" />
    <path
       inkscape:connector-curvature="0"
       id="path934"
       d="m 522.01558,626.27892 c -3.68792,-1.31609 -5.65607,-4.06163 -5.65607,-7.89016 0,-5.6476 3.53574,-8.30462 11.60134,-8.71812 l 4.12279,-0.21136 v -1.49879 c 0,-1.70546 -0.82502,-3.55482 -1.743,-3.90708 -2.04778,-0.78581 -4.49976,0.13997 -4.932,1.86215 -0.24137,0.96167 -0.26949,0.96774 -4.48473,0.96774 h -4.24183 l 0.26842,-1.24643 c 0.42329,-1.96558 1.18094,-3.17133 2.9376,-4.67496 4.82862,-4.13312 15.15752,-3.70325 18.57166,0.77291 1.82339,2.39059 2.02564,3.59645 2.05354,12.24351 0.024,7.42212 0.16834,9.21732 0.93311,11.60135 0.27566,0.85932 0.25926,0.86291 -3.93796,0.86291 h -4.21477 l -0.45385,-1.37517 -0.45385,-1.37517 -1.01408,0.97131 c -2.15452,2.06365 -6.16155,2.75546 -9.35632,1.61536 z m 6.94655,-5.44415 c 0.65617,-0.13124 1.62694,-0.64074 2.15727,-1.13224 0.84082,-0.77924 0.96424,-1.21506 0.96424,-3.40479 v -2.51116 h -1.92989 c -2.28622,0 -4.36598,0.78262 -4.94252,1.85989 -0.46965,0.87756 -0.54631,3.48881 -0.12087,4.11737 0.3517,0.51962 1.67234,1.28233 2.24728,1.29787 0.2373,0.006 0.96832,-0.0957 1.62449,-0.22694 z"
       style="fill:#454837;fill-opacity:1;stroke:none;stroke-width:0;stroke-opacity:0" />
    <path
       inkscape:connector-curvature="0"
       id="path936"
       d="m 566.02477,626.48438 c -4.52901,-1.22296 -8.24558,-4.77863 -8.24558,-7.88858 v -0.97407 h 3.75811 3.75811 l 0.49814,1.37758 c 1.25266,3.46417 8.09329,3.12454 8.09329,-0.40184 0,-1.58203 -0.6547,-1.91461 -7.8851,-4.00566 -1.4892,-0.43068 -3.42606,-1.30348 -4.30413,-1.93955 -3.93148,-2.84795 -4.20598,-8.17319 -0.59779,-11.59701 4.02741,-3.82162 13.45189,-3.95478 17.91813,-0.25317 1.53864,1.27522 2.89959,3.71212 2.91429,5.21831 0.008,0.84308 -0.0885,0.86291 -4.21025,0.86291 -3.88053,0 -4.21867,-0.0581 -4.21867,-0.72455 0,-2.28743 -3.81696,-3.57286 -5.84861,-1.96963 -0.78103,0.61634 -1.05467,1.17102 -1.05467,2.1379 0,1.73098 0.90459,2.2892 5.58951,3.44928 5.65514,1.40032 7.79831,2.67073 9.02982,5.35258 1.91695,4.17451 -0.12055,8.48846 -5.02856,10.64687 -1.9002,0.83565 -8.09619,1.26755 -10.16604,0.70863 z"
       style="fill:#454837;fill-opacity:1;stroke:none;stroke-width:0;stroke-opacity:0" />
    <path
       inkscape:connector-curvature="0"
       id="path938"
       d="m 586.54285,617.81349 v -19.36753 h 3.79412 c 3.99992,0 4.25971,0.1187 4.25971,1.94641 0,0.63473 0.23281,0.55542 1.73458,-0.59091 4.70225,-3.58931 11.57797,-1.54494 14.23844,4.23353 2.35961,5.12501 2.15121,13.22559 -0.45464,17.67215 -2.8998,4.94812 -9.16886,6.65539 -13.42432,3.65587 l -1.71055,-1.20571 v 6.51186 6.51186 h -4.21867 -4.21867 z m 15.4984,1.31275 c 1.35071,-1.60523 1.57035,-2.60394 1.55389,-7.06548 -0.0152,-4.1218 -0.52095,-5.71913 -2.17833,-6.88 -1.25875,-0.88167 -4.19053,-0.7756 -5.42611,0.19631 l -1.01051,0.79487 v 6.03511 c 0,4.25193 0.14165,6.21266 0.4794,6.63601 0.80567,1.00986 1.93045,1.43942 3.80106,1.45162 1.53256,0.01 1.92928,-0.15671 2.7806,-1.16844 z"
       style="fill:#454837;fill-opacity:1;stroke:none;stroke-width:0;stroke-opacity:0" />
    <path
       inkscape:connector-curvature="0"
       id="path940"
       d="m 616.45706,612.44427 v -13.99831 h 4.02692 4.02691 v 1.72581 c 0,0.94921 0.0867,1.72582 0.19276,1.72582 0.10601,0 0.7982,-0.67016 1.5382,-1.48924 1.65592,-1.83291 3.02794,-2.43132 5.21534,-2.27467 l 1.6828,0.12052 0.12142,2.30109 c 0.0668,1.2656 0.0131,3.03457 -0.11937,3.93103 l -0.24081,1.62995 h -2.48839 c -2.66824,0 -4.46446,0.66482 -5.12355,1.89633 -0.2381,0.44489 -0.39488,4.25016 -0.39488,9.58392 v 8.84607 h -4.21868 -4.21867 z"
       style="fill:#454837;fill-opacity:1;stroke:none;stroke-width:0;stroke-opacity:0" />
    <path
       inkscape:connector-curvature="0"
       id="path942"
       d="m 645.02897,626.30996 c -4.04006,-1.33794 -7.15607,-3.99626 -8.75651,-7.47031 -1.20976,-2.62601 -1.17585,-9.65757 0.0616,-12.7798 1.14747,-2.89513 3.43583,-5.41146 6.11978,-6.72945 1.95781,-0.96141 2.60066,-1.0762 6.02673,-1.0762 3.42763,0 4.06844,0.11455 6.03049,1.07804 4.24329,2.08371 6.34023,5.84864 6.71554,12.05736 l 0.21444,3.54752 h -8.90305 -8.90305 l 0.25674,0.86291 c 0.47131,1.58409 1.89056,3.34571 3.19832,3.96987 2.09752,1.0011 6.05819,0.61056 8.09035,-0.79772 l 1.6203,-1.12287 1.67384,1.89967 c 0.92061,1.04481 1.68047,2.0831 1.68857,2.30731 0.0272,0.75109 -2.07302,2.41543 -4.39569,3.48349 -1.87021,0.86 -2.94742,1.07874 -5.75274,1.16817 -2.13065,0.0679 -4.03874,-0.0844 -4.9857,-0.39799 z m 7.86207,-17.9221 c 0,-2.32987 -1.59141,-3.80566 -4.10384,-3.80566 -2.71401,0 -4.12873,1.25536 -4.86226,4.31455 l -0.25289,1.05467 h 4.6095 4.60949 z"
       style="fill:#454837;fill-opacity:1;stroke:none;stroke-width:0;stroke-opacity:0" />
    <path
       inkscape:connector-curvature="0"
       id="path944"
       d="m 669.60876,626.22274 c -3.60001,-1.31902 -5.59577,-4.13472 -5.59577,-7.89474 0,-5.59999 4.6749,-8.76009 12.95923,-8.76009 h 2.85989 l -0.18021,-2.17305 c -0.13756,-1.65879 -0.38575,-2.33949 -1.04876,-2.87637 -1.71009,-1.38474 -5.38578,-0.53298 -5.38578,1.24804 0,1.05544 -0.48896,1.16017 -4.83278,1.03508 l -3.82213,-0.11007 0.33318,-1.68084 c 0.50828,-2.5642 3.24324,-5.11781 6.58759,-6.15077 6.75061,-2.08505 13.54383,-0.0629 15.75695,4.69046 0.88716,1.90545 0.92697,2.33579 0.93055,10.05973 0.003,5.92499 0.15661,8.65601 0.57902,10.27775 0.3164,1.21475 0.57528,2.2865 0.57528,2.38167 0,0.0952 -1.88502,0.17305 -4.18893,0.17305 h -4.18893 l -0.45385,-1.37517 -0.45384,-1.37517 -1.01408,0.97131 c -2.1806,2.08863 -6.16913,2.74904 -9.41663,1.55918 z m 8.94462,-6.21554 c 0.8815,-0.65653 1.00454,-1.0441 1.10467,-3.47972 l 0.11268,-2.7409 h -1.87715 c -3.73753,0 -5.44325,1.30902 -5.44325,4.17734 0,2.91696 3.40113,4.05565 6.10305,2.04328 z"
       style="fill:#454837;fill-opacity:1;stroke:none;stroke-width:0;stroke-opacity:0" />
    <path
       inkscape:connector-curvature="0"
       id="path946"
       d="m 699.48818,626.24914 c -2.18457,-0.77368 -4.86832,-3.73158 -5.91527,-6.51951 -1.04972,-2.79533 -1.44973,-8.23443 -0.84305,-11.46345 0.81628,-4.34457 3.01194,-7.80343 5.90241,-9.29816 2.83755,-1.46735 7.91993,-0.92929 9.68924,1.02578 0.37492,0.41429 0.82751,0.75325 1.00575,0.75325 0.17825,0 0.32408,-3.19277 0.32408,-7.09504 v -7.09504 h 4.21867 4.21867 v 19.94281 19.94281 h -3.83515 -3.83516 v -1.31967 c 0,-1.73679 -0.45214,-1.94567 -1.57419,-0.72725 -2.06313,2.24033 -6.03944,3.02805 -9.356,1.85347 z m 8.98319,-6.93568 1.17997,-0.99288 v -5.87631 -5.8763 l -1.17997,-0.99289 c -1.59345,-1.3408 -4.44548,-1.40689 -5.60853,-0.12997 -1.3634,1.49689 -1.73585,2.62281 -1.93766,5.85755 -0.23852,3.82321 0.37319,6.68237 1.71724,8.02641 1.38962,1.38963 4.16776,1.38219 5.82895,-0.0156 z"
       style="fill:#454837;fill-opacity:1;stroke:none;stroke-width:0;stroke-opacity:0" />
    <path
       inkscape:connector-curvature="0"
       id="path948"
       d="m 729.78591,626.31388 c -3.54837,-1.17828 -5.91587,-3.10266 -7.14449,-5.80727 -1.28934,-2.83829 -1.23667,-2.88488 3.26139,-2.88488 h 3.97898 l 0.22662,1.13314 c 0.60268,3.01336 6.85467,3.68443 7.84551,0.84211 0.77947,-2.236 0.0604,-2.79029 -5.79879,-4.46976 -4.25865,-1.2207 -5.96389,-2.08938 -7.47098,-3.80586 -3.37412,-3.84292 -1.90161,-9.35034 3.18418,-11.90933 2.14964,-1.08163 2.57876,-1.15709 6.51976,-1.14648 4.48152,0.0121 5.85772,0.3797 8.65732,2.31276 1.49061,1.02923 2.80413,3.09246 3.22044,5.05856 l 0.26393,1.24643 h -4.1721 -4.1721 l -0.46363,-1.28215 c -1.20526,-3.33309 -6.97725,-2.61905 -6.97725,0.86315 0,1.30438 1.67179,2.26655 5.71327,3.28817 4.7491,1.20049 6.42048,1.99572 8.01758,3.81472 3.49361,3.979 2.09555,9.15427 -3.17371,11.74832 -2.22633,1.09602 -2.97503,1.26076 -6.25545,1.3764 -2.41014,0.085 -4.2683,-0.0486 -5.26048,-0.37803 z"
       style="fill:#454837;fill-opacity:1;stroke:none;stroke-width:0;stroke-opacity:0" />
    <path
       inkscape:connector-curvature="0"
       id="path952"
       d="m 750.6875,606.49978 v -19.94281 h 4.21867 4.21868 v 7.51829 7.51828 l 1.41029,-1.23825 c 1.85598,-1.62958 3.52738,-2.29332 5.7683,-2.29071 2.89507,0.003 4.74666,0.70023 6.48837,2.44195 2.56926,2.56926 2.8242,3.99938 2.8242,15.84251 v 10.09355 h -4.21867 -4.21867 v -9.37116 c 0,-9.46917 -0.18638,-11.00387 -1.45326,-11.96638 -0.90132,-0.68478 -4.09474,-0.64842 -5.46906,0.0623 l -1.1315,0.58512 v 10.34507 10.34507 h -4.21868 -4.21867 z"
       style="fill:#454837;fill-opacity:1;stroke:none;stroke-width:0;stroke-opacity:0" />
    <path
       inkscape:connector-curvature="0"
       id="path954"
       d="m 790.38136,626.48933 c -7.39824,-1.93754 -11.07272,-7.91591 -10.12263,-16.46948 0.57411,-5.1686 2.99753,-8.78399 7.2131,-10.76091 1.86712,-0.8756 2.63545,-1.00417 5.97766,-1.00032 4.3744,0.005 6.304,0.69496 8.84454,3.1623 2.37474,2.30632 3.37416,5.00239 3.55316,9.58517 l 0.15355,3.93103 h -8.71418 -8.71417 l 0.25883,1.03128 c 0.37104,1.47833 1.62689,3.10822 2.90364,3.76845 2.30845,1.19375 7.05359,0.4818 9.00454,-1.35102 0.7751,-0.72817 0.79402,-0.71681 2.67349,1.60505 l 1.89286,2.3384 -1.5177,1.28843 c -2.27586,1.93204 -5.17447,2.9163 -8.99626,3.0548 -1.79293,0.065 -3.77763,-0.0175 -4.41043,-0.18318 z m 7.47856,-17.43947 c 0,-2.81535 -1.70001,-4.46766 -4.59664,-4.46766 -2.02685,0 -3.24418,0.82633 -3.99995,2.71517 -1.07824,2.6948 -1.13956,2.65405 3.9944,2.65405 4.57542,0 4.60219,-0.005 4.60219,-0.90156 z"
       style="fill:#454837;fill-opacity:1;stroke:none;stroke-width:0;stroke-opacity:0" />
    <path
       inkscape:connector-curvature="0"
       id="path956"
       d="m 818.92617,626.3017 c -5.37493,-1.44924 -9.1647,-5.93499 -9.76719,-11.5609 -0.3613,-3.37379 0.37926,-7.54666 1.81854,-10.24703 1.34564,-2.52468 2.57816,-3.70107 5.44169,-5.19387 1.73322,-0.90355 2.40042,-1.02256 5.79394,-1.03342 3.23716,-0.0104 4.15087,0.13039 5.8599,0.90271 4.458,2.0146 6.98787,6.62703 6.98787,12.74021 v 3.02772 h -8.6291 c -7.96306,0 -8.62899,0.0518 -8.62766,0.67116 0.002,1.08922 1.43049,3.11301 2.77555,3.9331 2.28948,1.39592 7.12077,0.83557 9.23735,-1.07136 0.69855,-0.62936 0.80668,-0.56923 2.61287,1.45281 l 1.88417,2.10933 -1.76641,1.62395 c -3.03947,2.79434 -8.86996,3.92674 -13.62152,2.64559 z m 7.93198,-17.98022 c -0.35835,-2.36484 -1.96607,-3.73928 -4.37396,-3.73928 -1.0044,0 -2.18726,0.2529 -2.62856,0.56201 -0.93236,0.65305 -2.05291,2.83761 -2.05291,4.00226 0,0.77334 0.18265,0.80495 4.65121,0.80495 h 4.6512 z"
       style="fill:#454837;fill-opacity:1;stroke:none;stroke-width:0;stroke-opacity:0" />
    <path
       inkscape:connector-curvature="0"
       id="path958"
       d="m 845.73901,626.47449 c -1.94127,-0.62874 -3.32311,-1.69581 -4.21805,-3.25724 -0.85891,-1.49855 -0.9045,-1.95824 -1.02087,-10.29358 l -0.1218,-8.72498 h -1.69989 -1.6999 v -2.87637 -2.87636 h 1.72582 1.72582 v -3.45164 -3.45164 h 4.21867 4.21867 v 3.45164 3.45164 h 2.3011 2.30109 v 2.87636 2.87637 h -2.30109 -2.3011 v 7.20146 c 0,8.59173 0.1091,8.90619 3.08987,8.90619 h 1.89583 v 2.85373 c 0,1.82238 -0.16807,2.95761 -0.46506,3.14116 -0.6874,0.42484 -6.46807,0.55578 -7.64911,0.17326 z"
       style="fill:#454837;fill-opacity:1;stroke:none;stroke-width:0;stroke-opacity:0" />
  </g>
  <g
     transform="matrix(1.0452859,0,0,1.0452859,1034.2069,123.20712)"
     style="overflow:hidden"
     id="g1071">
    <g
       id="g7">
      <path
         style="fill:#5500ff;stroke:#ffffff;stroke-width:1"
         inkscape:connector-curvature="0"
         id="path5"
         d="M 150,150 V 15 a 135,135 0 0 1 61.33303,14.736709 L 150,150" />
    </g>
    <g
       id="g11">
      <path
         style="fill:#8a73ba;stroke:#ffffff;stroke-width:1"
         inkscape:connector-curvature="0"
         id="path9"
         d="M 150,150 211.33303,29.736709 a 135,135 0 0 1 39.19835,30.160894 L 150,150" />
    </g>
    <g
       id="g15">
      <path
         style="fill:#d13a83;stroke:#ffffff;stroke-width:1"
         inkscape:connector-curvature="0"
         id="path13"
         d="M 150,150 250.53138,59.897603 a 135,135 0 0 1 14.63131,19.657002 L 150,150" />
    </g>
    <g
       id="g19">
      <path
         style="fill:#1fd96f;stroke:#ffffff;stroke-width:1"
         inkscape:connector-curvature="0"
         id="path17"
         d="M 150,150 265.16269,79.554605 a 135,135 0 0 1 9.35385,18.285714 L 150,150" />
    </g>
    <g
       id="g23">
      <path
         style="fill:#dbcb15;stroke:#ffffff;stroke-width:1"
         inkscape:connector-curvature="0"
         id="path21"
         d="M 150,150 274.51654,97.840319 a 135,135 0 0 1 3.91702,10.568551 L 150,150" />
    </g>
    <g
       id="g27">
      <path
         style="fill:#d46b2f;stroke:#ffffff;stroke-width:1"
         inkscape:connector-curvature="0"
         id="path25-3"
         d="m 150,150 128.43356,-41.59113 a 135,135 0 0 1 5.17512,60.92298 L 150,150" />
    </g>
    <g
       id="g31">
      <path
         style="fill:#5500ff;stroke:#ffffff;stroke-width:1"
         inkscape:connector-curvature="0"
         id="path29"
         d="m 150,150 133.60868,19.33185 a 135,135 0 0 1 -3.91274,18.13766 L 150,150" />
    </g>
    <g
       id="g35">
      <path
         style="fill:#8a73ba;stroke:#ffffff;stroke-width:1"
         inkscape:connector-curvature="0"
         id="path33"
         d="m 150,150 129.69594,37.46951 A 135,135 0 0 1 260.6225,227.37999 L 150,150" />
    </g>
    <g
       id="g39">
      <path
         style="fill:#d13a83;stroke:#ffffff;stroke-width:1"
         inkscape:connector-curvature="0"
         id="path37"
         d="m 150,150 110.6225,77.37999 a 135,135 0 0 1 -27.77266,29.20755 L 150,150" />
    </g>
    <g
       id="g43">
      <path
         style="fill:#1fd96f;stroke:#ffffff;stroke-width:1"
         inkscape:connector-curvature="0"
         id="path41"
         d="m 150,150 82.84984,106.58754 a 135,135 0 0 1 -1.05122,0.80886 L 150,150" />
    </g>
    <g
       id="g47">
      <path
         style="fill:#dbcb15;stroke:#ffffff;stroke-width:1"
         inkscape:connector-curvature="0"
         id="path45"
         d="m 150,150 81.79862,107.3964 a 135,135 0 0 1 -39.1049,20.67485 L 150,150" />
    </g>
    <g
       id="g51">
      <path
         style="fill:#1fd96f;stroke:#ffffff;stroke-width:1"
         inkscape:connector-curvature="0"
         id="path49"
         d="M 150,150 101.37792,24.059963 A 135,135 0 0 1 150,15 v 135" />
    </g>
    <g
       id="g55">
      <path
         style="fill:#d13a83;stroke:#ffffff;stroke-width:1"
         inkscape:connector-curvature="0"
         id="path53"
         d="M 150,150 83.411414,32.565081 A 135,135 0 0 1 101.37792,24.059963 L 150,150" />
    </g>
    <g
       id="g59">
      <path
         style="fill:#8a73ba;stroke:#ffffff;stroke-width:1"
         inkscape:connector-curvature="0"
         id="path57"
         d="M 150,150 56.374958,52.740802 A 135,135 0 0 1 83.411414,32.565081 L 150,150" />
    </g>
    <g
       id="g63">
      <path
         style="fill:#5500ff;stroke:#ffffff;stroke-width:1"
         inkscape:connector-curvature="0"
         id="path61"
         d="M 150,150 32.483389,83.555691 A 135,135 0 0 1 56.374958,52.740802 L 150,150" />
    </g>
    <g
       id="g67">
      <path
         style="fill:#940011;stroke:#ffffff;stroke-width:1"
         inkscape:connector-curvature="0"
         id="path65"
         d="M 150,150 22.626682,105.26704 A 135,135 0 0 1 32.483389,83.555691 L 150,150" />
    </g>
    <g
       id="g71">
      <path
         style="fill:#d46b2f;stroke:#ffffff;stroke-width:1"
         inkscape:connector-curvature="0"
         id="path69"
         d="m 150,150 -134.755621,8.11927 a 135,135 0 0 1 7.382303,-52.85223 L 150,150" />
    </g>
    <g
       id="g75">
      <path
         style="fill:#dbcb15;stroke:#ffffff;stroke-width:1"
         inkscape:connector-curvature="0"
         id="path73"
         d="M 150,150 17.254046,174.56647 a 135,135 0 0 1 -2.009667,-16.4472 L 150,150" />
    </g>
    <g
       id="g79">
      <path
         style="fill:#1fd96f;stroke:#ffffff;stroke-width:1"
         inkscape:connector-curvature="0"
         id="path77"
         d="M 150,150 37.878418,225.19143 A 135,135 0 0 1 17.254046,174.56647 L 150,150" />
    </g>
    <g
       id="g83">
      <path
         style="fill:#d13a83;stroke:#ffffff;stroke-width:1"
         inkscape:connector-curvature="0"
         id="path81"
         d="M 150,150 51.032627,241.81753 A 135,135 0 0 1 37.878418,225.19143 L 150,150" />
    </g>
    <g
       id="g87">
      <path
         style="fill:#8a73ba;stroke:#ffffff;stroke-width:1"
         inkscape:connector-curvature="0"
         id="path85"
         d="M 150,150 66.106941,255.7684 A 135,135 0 0 1 51.032627,241.81753 L 150,150" />
    </g>
    <g
       id="g91">
      <path
         style="fill:#5500ff;stroke:#ffffff;stroke-width:1"
         inkscape:connector-curvature="0"
         id="path89"
         d="M 150,150 96.162963,273.80054 A 135,135 0 0 1 66.106941,255.7684 L 150,150" />
    </g>
    <g
       id="g95">
      <path
         style="fill:#940011;stroke:#ffffff;stroke-width:1"
         inkscape:connector-curvature="0"
         id="path93"
         d="m 150,150 -2.98415,134.96701 A 135,135 0 0 1 96.162963,273.80054 L 150,150" />
    </g>
    <g
       id="g99">
      <path
         style="fill:#d46b2f;stroke:#ffffff;stroke-width:1"
         inkscape:connector-curvature="0"
         id="path97"
         d="m 150,150 42.69372,128.07125 a 135,135 0 0 1 -45.67787,6.89576 L 150,150" />
    </g>
  </g>
  <g
     transform="matrix(1.2272684,0,0,1.2272684,37.927229,159.3895)"
     style="overflow:hidden"
     id="g56">
    <rect
       style="fill:#ffffff;fill-opacity:0;stroke:none;stroke-width:0"
       x="15"
       y="11"
       width="270"
       height="193"
       id="rect8" />
    <g
       clip-path="url(http://ceagon.com/tools/charts#_ABSTRACT_RENDERER_ID_634)"
       id="g30">
      <g
         id="g20">
        <rect
           style="fill:#cccccc;stroke:none;stroke-width:0"
           x="15"
           y="203"
           width="270"
           height="1"
           id="rect10" />
        <rect
           style="fill:#cccccc;stroke:none;stroke-width:0"
           x="15"
           y="155"
           width="270"
           height="1"
           id="rect12" />
        <rect
           style="fill:#cccccc;stroke:none;stroke-width:0"
           x="15"
           y="107"
           width="270"
           height="1"
           id="rect14" />
        <rect
           style="fill:#cccccc;stroke:none;stroke-width:0"
           x="15"
           y="59"
           width="270"
           height="1"
           id="rect16" />
        <rect
           style="fill:#cccccc;stroke:none;stroke-width:0"
           x="15"
           y="11"
           width="270"
           height="1"
           id="rect18" />
      </g>
      <g
         id="g24">
        <rect
           style="fill:#333333;stroke:none;stroke-width:0"
           x="15"
           y="203"
           width="270"
           height="1"
           id="rect22" />
      </g>
      <g
         id="g28">
        <path
           style="fill:none;fill-opacity:1;stroke:#5500ff;stroke-width:2"
           inkscape:connector-curvature="0"
           d="M 20.88,19.18 31.64,59.5 42.4,132.46 53.16,143.98 63.92,170.86 74.68,24.94 85.44,203.5 96.2,149.74 106.96,74.86 117.72,86.38 128.48,199.66 139.24,74.86 150,69.1 l 10.76,-17.28 10.76,49.92 10.76,42.24 10.76,-1.92 10.76,-97.92 10.76,111.36 10.76,-107.52 10.76,86.4 10.76,-44.16 10.76,15.36 10.76,40.32 10.76,-86.4"
           id="path26" />
      </g>
    </g>
    <g
       id="g32" />
    <g
       id="g54">
      <g
         id="g36">
        <text
           style="font-size:0px;font-family:Arial;text-anchor:end;fill:#444444;stroke:none;stroke-width:0"
           x="15"
           y="203.5"
           font-size="0"
           id="text34">0</text>
      </g>
      <g
         id="g40">
        <text
           style="font-size:0px;font-family:Arial;text-anchor:end;fill:#444444;stroke:none;stroke-width:0"
           x="15"
           y="155.5"
           font-size="0"
           id="text38">25</text>
      </g>
      <g
         id="g44">
        <text
           style="font-size:0px;font-family:Arial;text-anchor:end;fill:#444444;stroke:none;stroke-width:0"
           x="15"
           y="107.5"
           font-size="0"
           id="text42">50</text>
      </g>
      <g
         id="g48">
        <text
           style="font-size:0px;font-family:Arial;text-anchor:end;fill:#444444;stroke:none;stroke-width:0"
           x="15"
           y="59.5"
           font-size="0"
           id="text46">75</text>
      </g>
      <g
         id="g52">
        <text
           style="font-size:0px;font-family:Arial;text-anchor:end;fill:#444444;stroke:none;stroke-width:0"
           x="15"
           y="11.5"
           font-size="0"
           id="text50">100</text>
      </g>
    </g>
  </g>
  <g
     id="g1381">
    <path
       inkscape:connector-curvature="0"
       id="path1267"
       d="m 62.159213,448.90165 v -14.0942 h 5.160591 c 6.195319,0 7.360399,0.16886 9.935751,1.44 3.5505,1.75247 5.816054,4.84444 6.682389,9.11997 0.394285,1.94588 0.292743,6.35456 -0.187401,8.13642 -1.223088,4.53898 -4.648308,7.98753 -9.05219,9.11386 -1.303728,0.33344 -2.132395,0.37814 -7.008839,0.37814 h -5.530301 z m 11.825902,8.4213 c 1.995792,-1.02069 2.998903,-2.91736 3.341085,-6.31728 0.246311,-2.44736 -0.01999,-5.70491 -0.591178,-7.23153 -0.478637,-1.27928 -1.673701,-2.69272 -2.758121,-3.26214 -0.647179,-0.33983 -1.202724,-0.42952 -3.04477,-0.49158 l -2.253154,-0.0759 v 9.05744 9.05745 l 2.102432,-0.0866 c 1.85192,-0.0763 2.233653,-0.15373 3.203706,-0.64983 z"
       style="fill:#454837;fill-opacity:1;stroke:none;stroke-width:0;stroke-opacity:0" />
    <path
       inkscape:connector-curvature="0"
       id="path1269"
       d="m 94.566276,463.07659 c -3.412965,-0.89811 -6.091474,-3.37164 -7.11636,-6.57176 -0.533286,-1.66514 -0.58555,-5.43526 -0.101414,-7.31554 1.213321,-4.7123 4.797619,-7.47044 9.710625,-7.47239 4.558293,-0.002 7.962133,2.59408 9.128923,6.96206 0.14541,0.54434 0.32145,2.08993 0.39121,3.43463 l 0.12682,2.44491 h -6.63179 -6.631789 l 0.15445,0.53854 c 0.272467,0.95004 0.733968,1.67854 1.504112,2.37432 1.752536,1.58331 5.086767,1.39373 7.350537,-0.41795 l 0.6944,-0.55572 1.36699,1.6054 c 0.75185,0.88297 1.36699,1.69054 1.36699,1.79459 0,0.36507 -1.83327,1.81486 -2.97224,2.35052 -0.6328,0.2976 -1.66485,0.67387 -2.29344,0.83613 -1.4357,0.37062 -4.62573,0.36653 -6.048024,-0.008 z m 5.752734,-13.2714 c 0,-1.05721 -0.725793,-2.36911 -1.534063,-2.77288 -0.902466,-0.45083 -2.591026,-0.44038 -3.454632,0.0214 -0.780759,0.41747 -1.273947,1.18093 -1.626706,2.51818 l -0.253167,0.95971 h 3.434284 3.434284 z"
       style="fill:#454837;fill-opacity:1;stroke:none;stroke-width:0;stroke-opacity:0" />
    <path
       inkscape:connector-curvature="0"
       id="path1271"
       d="m 114.41321,463.11113 c -2.197,-0.69482 -3.23771,-1.84412 -3.71596,-4.1037 -0.13153,-0.62141 -0.21508,-3.24727 -0.21508,-6.75946 v -5.74329 h -1.3423 -1.34231 v -2.20522 -2.20521 h 1.34231 1.3423 v -2.58873 -2.58873 h 3.25988 3.25989 v 2.58873 2.58873 h 1.72582 1.72582 v 2.20521 2.20522 h -1.72582 -1.72582 v 5.54705 5.54706 l 0.50525,0.39743 c 0.39971,0.31442 0.78025,0.39744 1.8217,0.39744 h 1.31644 v 2.2852 2.2852 l -0.96822,0.20765 c -1.28987,0.27663 -4.30747,0.2419 -5.2639,-0.0606 z"
       style="fill:#454837;fill-opacity:1;stroke:none;stroke-width:0;stroke-opacity:0" />
    <path
       inkscape:connector-curvature="0"
       id="path1273"
       d="m 126.64484,462.99592 c -3.00532,-1.06853 -4.67427,-3.53519 -4.39747,-6.49935 0.37489,-4.01462 3.7637,-6.12931 9.85549,-6.15005 l 1.96552,-0.007 v -1.1695 c 0,-2.16902 -0.97492,-3.2053 -2.81988,-2.99734 -1.12312,0.12659 -1.72419,0.5726 -1.99649,1.48146 l -0.23004,0.7678 h -3.15972 -3.15971 l 0.12107,-0.88329 c 0.26506,-1.93386 1.71312,-3.70021 3.85522,-4.70262 4.70515,-2.2018 10.83378,-1.04373 12.87072,2.43205 0.8628,1.47225 0.90541,1.84029 1.03117,8.9066 0.11258,6.32541 0.14989,6.87899 0.52695,7.81858 l 0.4058,1.01119 -3.29044,-0.0524 -3.29043,-0.0524 -0.24857,-0.75927 c -0.13671,-0.41759 -0.28426,-0.79496 -0.3279,-0.8386 -0.0436,-0.0436 -0.47618,0.26998 -0.96121,0.69692 -0.48503,0.42695 -1.28077,0.91218 -1.76831,1.0783 -1.21874,0.41527 -3.69882,0.37474 -4.98177,-0.0814 z m 5.36738,-4.23028 c 0.39839,-0.11063 1.024,-0.46425 1.39025,-0.78582 l 0.66591,-0.58468 v -1.92431 -1.92431 l -1.71363,0.0977 c -2.66747,0.15209 -3.65464,0.99782 -3.65529,3.13155 -2.5e-4,0.81237 0.0858,1.05106 0.52703,1.4622 0.82362,0.76741 1.47685,0.89114 2.78573,0.52766 z"
       style="fill:#454837;fill-opacity:1;stroke:none;stroke-width:0;stroke-opacity:0" />
    <path
       inkscape:connector-curvature="0"
       id="path1275"
       d="m 144.80681,452.54505 v -10.4508 h 3.16401 3.164 v 10.4508 10.45079 h -3.164 -3.16401 z"
       style="fill:#454837;fill-opacity:1;stroke:none;stroke-width:0;stroke-opacity:0" />
    <path
       inkscape:connector-curvature="0"
       id="path1277"
       d="m 146.245,439.32961 c -0.31641,-0.14123 -0.82864,-0.52607 -1.1383,-0.85521 -0.45747,-0.48624 -0.57749,-0.80518 -0.64018,-1.70124 -0.0642,-0.91813 -0.002,-1.21518 0.37281,-1.77395 0.97904,-1.46028 3.29013,-1.969 4.97096,-1.09422 2.22361,1.15727 2.17447,4.31013 -0.0839,5.38178 -0.80161,0.38039 -2.67358,0.40342 -3.48142,0.0428 z"
       style="fill:#454837;fill-opacity:1;stroke:none;stroke-width:0;stroke-opacity:0" />
    <path
       inkscape:connector-curvature="0"
       id="path1279"
       d="m 155.737,448.13462 v -14.86123 h 3.25989 3.25988 v 14.86123 14.86122 h -3.25988 -3.25989 z"
       style="fill:#454837;fill-opacity:1;stroke:none;stroke-width:0;stroke-opacity:0" />
    <path
       inkscape:connector-curvature="0"
       id="path1281"
       d="m 173.85811,463.18379 c -3.02553,-0.60566 -5.67021,-2.60097 -6.98462,-5.26963 -0.80231,-1.62893 -1.01688,-2.75299 -1.0066,-5.27323 0.0237,-5.80954 2.70832,-9.64153 7.46009,-10.64845 3.64766,-0.77296 7.17028,0.13193 9.33063,2.39683 1.87005,1.96056 2.55323,3.88615 2.74048,7.72428 l 0.11928,2.44491 h -6.54872 c -6.46351,0 -6.54872,0.005 -6.54872,0.39116 0,0.66107 0.71346,1.8342 1.55205,2.552 1.7718,1.51659 5.25304,1.32651 7.26629,-0.39676 l 0.73093,-0.62564 1.36161,1.61694 c 0.74889,0.88932 1.36162,1.70103 1.36162,1.80381 0,0.33596 -1.7968,1.78132 -2.92234,2.35076 -0.60535,0.30627 -1.64084,0.68422 -2.30109,0.83989 -1.27144,0.29977 -4.32542,0.35046 -5.61089,0.0931 z m 5.21828,-13.70556 c -0.12897,-1.24965 -0.69298,-2.13804 -1.59723,-2.51585 -0.85852,-0.35872 -2.45694,-0.33587 -3.26303,0.0466 -0.78082,0.37053 -1.53052,1.55418 -1.71492,2.7076 l -0.1303,0.81497 h 3.4071 3.4071 z"
       style="fill:#454837;fill-opacity:1;stroke:none;stroke-width:0;stroke-opacity:0" />
    <path
       inkscape:connector-curvature="0"
       id="path1283"
       d="m 192.99551,463.03322 c -2.70225,-0.96334 -4.45262,-3.24311 -5.25531,-6.84478 -0.36929,-1.65698 -0.32014,-5.99466 0.0867,-7.65105 0.74758,-3.04368 2.21607,-5.04324 4.49275,-6.1175 1.14842,-0.54188 1.47837,-0.60873 3.01534,-0.61087 1.93548,-0.003 2.93756,0.33666 4.15785,1.4081 0.3777,0.33162 0.74006,0.60295 0.80523,0.60295 0.0652,0 0.11851,-2.373 0.11851,-5.27334 v -5.27334 h 3.164 3.164 v 14.86123 14.86122 h -2.85427 -2.85427 l -0.13177,-1.05466 c -0.0725,-0.58007 -0.17159,-1.05467 -0.22025,-1.05467 -0.0487,0 -0.38577,0.2973 -0.74914,0.66067 -0.36338,0.36338 -1.06813,0.89946 -1.56613,1.19131 -0.77572,0.4546 -1.1541,0.5392 -2.64076,0.59042 -1.32074,0.0455 -1.97352,-0.0251 -2.73247,-0.29569 z m 5.36328,-4.65065 c 0.39749,-0.11038 1.0231,-0.50109 1.39024,-0.86823 l 0.66754,-0.66753 v -4.19756 -4.19757 l -0.50224,-0.59687 c -0.69892,-0.83062 -1.42492,-1.15838 -2.56589,-1.15838 -2.58398,0 -3.55172,1.83863 -3.41985,6.49746 0.0635,2.2444 0.13612,2.73875 0.51691,3.52055 0.78362,1.60882 2.10247,2.17101 3.91329,1.66813 z"
       style="fill:#454837;fill-opacity:1;stroke:none;stroke-width:0;stroke-opacity:0" />
    <path
       inkscape:connector-curvature="0"
       id="path1285"
       d="m 230.02319,463.22372 c -5.29976,-0.48308 -9.16775,-3.61847 -9.66729,-7.8363 l -0.15809,-1.3348 h 3.26818 3.26817 l 0.18192,1.07677 c 0.22593,1.33727 1.03786,2.39953 2.20766,2.8883 1.1824,0.49404 4.25523,0.48223 5.22659,-0.0201 1.66257,-0.85975 1.81024,-3.50619 0.2684,-4.81032 -0.4745,-0.40135 -2.09633,-1.18038 -3.60405,-1.73119 -5.68479,-2.07678 -7.95637,-3.58781 -9.22704,-6.13772 -1.77078,-3.55349 -0.17395,-7.57482 3.75623,-9.45941 2.24618,-1.07709 4.18932,-1.41888 7.23325,-1.2723 2.16959,0.10447 2.899,0.26226 4.34019,0.93891 0.95278,0.44733 2.12185,1.14278 2.59794,1.54545 1.07932,0.91287 2.52421,3.75038 2.52421,4.9571 v 0.90584 h -3.25423 c -2.9181,0 -3.25435,-0.049 -3.25525,-0.47458 -5.6e-4,-0.26101 -0.2473,-0.87853 -0.54832,-1.37225 -1.75857,-2.8844 -7.58626,-1.83487 -7.58626,1.36624 0,1.48841 1.27577,2.39983 5.42372,3.87474 3.72736,1.32536 5.20657,2.09042 6.70963,3.47027 1.73756,1.59514 2.50474,3.35713 2.50806,5.7603 0.008,5.42812 -4.65467,8.35402 -12.21362,7.66502 z"
       style="fill:#454837;fill-opacity:1;stroke:none;stroke-width:0;stroke-opacity:0" />
    <path
       inkscape:connector-curvature="0"
       id="path1287"
       d="m 251.95705,463.25 c -2.71736,-0.30384 -4.24579,-1.68101 -4.81588,-4.33928 -0.16035,-0.74765 -0.29154,-3.85506 -0.29154,-6.90534 v -5.54598 h -1.35593 -1.35593 v -2.16949 -2.16949 h 1.35593 1.35593 v -2.57627 -2.57627 h 3.25424 3.25424 v 2.57627 2.57627 h 1.76271 1.76271 v 2.16949 2.16949 h -1.76271 -1.76271 v 5.53995 c 0,6.44563 -0.0194,6.39226 2.32445,6.39226 h 1.47216 v 2.28847 2.28846 l -1.28814,0.16357 c -0.70847,0.09 -1.5322,0.19195 -1.83051,0.22663 -0.2983,0.0347 -1.23386,-0.0142 -2.07902,-0.10874 z"
       style="fill:#454837;fill-opacity:1;stroke:none;stroke-width:0;stroke-opacity:0" />
    <path
       inkscape:connector-curvature="0"
       id="path1289"
       d="m 264.47675,463.24111 c -0.67118,-0.10303 -1.54955,-0.31563 -1.95192,-0.47242 -1.07386,-0.41846 -2.95727,-2.21162 -3.37767,-3.21583 -0.4739,-1.13201 -0.46885,-3.92045 0.009,-5.03437 0.50354,-1.17351 1.93556,-2.48998 3.42325,-3.14702 1.23429,-0.54513 4.81626,-1.11546 7.00564,-1.11546 h 1.19045 l -0.18163,-1.28813 c -0.27961,-1.98306 -0.87998,-2.62785 -2.53778,-2.72556 -1.10251,-0.065 -1.49521,0.0311 -1.93864,0.47457 -0.30584,0.30584 -0.55607,0.80014 -0.55607,1.09845 0,0.51224 -0.18079,0.54237 -3.25424,0.54237 -1.78983,0 -3.25424,-0.0389 -3.25424,-0.0864 0,-0.0475 0.17908,-0.68938 0.39794,-1.42639 0.48518,-1.63376 2.1329,-3.34504 4.07664,-4.23388 1.17214,-0.53601 1.79951,-0.62047 4.62847,-0.62315 3.10719,-0.003 3.35324,0.0382 4.86971,0.81328 1.77359,0.90655 3.19177,2.51851 3.64199,4.13963 0.15429,0.55555 0.28412,3.69484 0.28852,6.9762 0.007,5.50336 0.1054,6.77855 0.6522,8.48337 l 0.19853,0.61895 -3.20751,-0.0766 -3.2075,-0.0766 -0.29074,-0.89948 c -0.25321,-0.7834 -0.33589,-0.84507 -0.64066,-0.47785 -1.11253,1.34052 -3.71044,2.10127 -5.98386,1.75226 z m 4.55648,-4.68615 c 1.42636,-0.73759 1.71556,-1.30344 1.62676,-3.18295 l -0.0815,-1.72617 -1.52188,0.029 c -2.22491,0.0424 -2.9064,0.28881 -3.50247,1.26642 -1.57638,2.58539 0.76494,5.01727 3.47913,3.6137 z"
       style="fill:#454837;fill-opacity:1;stroke:none;stroke-width:0;stroke-opacity:0" />
    <path
       inkscape:connector-curvature="0"
       id="path1291"
       d="m 286.92454,463.22491 c -2.49644,-0.32464 -3.57212,-1.06744 -4.46104,-3.08052 -0.39581,-0.89638 -0.49178,-2.12154 -0.57808,-7.3799 l -0.10348,-6.30509 h -1.33056 -1.33056 v -2.16949 -2.16949 h 1.35593 1.35593 v -2.57627 -2.57627 h 3.25424 3.25424 v 2.57627 2.57627 h 1.76271 1.76271 v 2.16949 2.16949 h -1.76271 -1.76271 v 5.53995 c 0,6.44563 -0.0194,6.39226 2.32445,6.39226 h 1.47216 v 2.28847 2.28846 l -1.28814,0.16357 c -0.70847,0.09 -1.5322,0.19306 -1.83051,0.22911 -0.2983,0.036 -1.24086,-0.0253 -2.09458,-0.13631 z"
       style="fill:#454837;fill-opacity:1;stroke:none;stroke-width:0;stroke-opacity:0" />
    <path
       inkscape:connector-curvature="0"
       id="path1293"
       d="m 294.84963,452.5611 v -10.44068 h 3.25424 3.25424 v 10.44068 10.44068 h -3.25424 -3.25424 z"
       style="fill:#454837;fill-opacity:1;stroke:none;stroke-width:0;stroke-opacity:0" />
    <path
       inkscape:connector-curvature="0"
       id="path1295"
       d="m 296.46303,439.25155 c -2.57145,-1.06888 -2.45045,-4.42387 0.19601,-5.43456 1.47268,-0.56243 2.81594,-0.32445 3.9653,0.7025 0.73323,0.65515 0.86936,0.96689 0.86936,1.99089 0,1.38689 -0.58045,2.21721 -1.95739,2.80001 -1.09547,0.46367 -1.85108,0.4492 -3.07328,-0.0588 z"
       style="fill:#454837;fill-opacity:1;stroke:none;stroke-width:0;stroke-opacity:0" />
    <path
       inkscape:connector-curvature="0"
       id="path1297"
       d="m 311.99229,463.22418 c -3.05688,-0.34374 -5.66459,-1.99096 -6.85933,-4.33285 -0.28634,-0.56127 -0.52062,-1.33044 -0.52062,-1.70926 v -0.68877 h 2.8423 c 2.8065,0 2.84443,0.009 3.01265,0.67877 0.0937,0.37332 0.5325,0.98349 0.97512,1.35593 0.64426,0.54211 1.10165,0.67717 2.29332,0.67717 1.79038,0 2.39979,-0.28639 2.72887,-1.28241 0.54369,-1.6456 -0.1131,-2.16954 -4.03554,-3.21926 -3.10611,-0.83125 -4.81622,-1.71899 -6.01958,-3.12484 -1.57936,-1.84512 -1.6682,-4.13669 -0.24946,-6.43471 0.61386,-0.99431 1.17221,-1.46145 2.64149,-2.20997 1.83308,-0.93386 1.91592,-0.94889 5.14205,-0.9327 2.72413,0.0137 3.49017,0.11239 4.52721,0.58344 2.38021,1.08114 4.2876,3.36854 4.30511,5.16282 0.006,0.5975 -0.0583,0.61017 -3.09166,0.61017 h -3.09761 l -0.31394,-0.95124 c -0.38405,-1.1637 -0.94613,-1.48944 -2.57008,-1.48944 -1.88506,0 -2.99908,1.30882 -2.41331,2.83531 0.2503,0.65229 1.42142,1.16547 4.06799,1.78257 4.14282,0.96598 5.91263,2.04052 6.91043,4.19568 1.35025,2.9164 -0.092,6.10538 -3.45823,7.64649 -1.68909,0.77329 -4.43702,1.11475 -6.81718,0.8471 z"
       style="fill:#454837;fill-opacity:1;stroke:none;stroke-width:0;stroke-opacity:0" />
    <path
       inkscape:connector-curvature="0"
       id="path1299"
       d="m 332.27336,463.25125 c -2.68308,-0.29574 -4.30567,-1.64859 -4.85935,-4.05152 -0.15396,-0.6682 -0.28292,-3.80812 -0.28656,-6.97761 l -0.007,-5.76272 h -1.35593 -1.35593 v -2.16949 -2.16949 h 1.35593 1.35593 v -2.57627 -2.57627 h 3.25424 3.25423 v 2.57627 2.57627 h 1.62712 1.62712 v 2.16949 2.16949 h -1.62712 -1.62712 v 5.64068 c 0,4.02561 0.0932,5.73386 0.32543,5.9661 0.17898,0.17899 0.9722,0.32543 1.76271,0.32543 h 1.43729 v 2.29279 2.2928 l -0.88136,0.13605 c -1.76592,0.27261 -2.53731,0.29922 -4,0.138 z"
       style="fill:#454837;fill-opacity:1;stroke:none;stroke-width:0;stroke-opacity:0" />
    <path
       inkscape:connector-curvature="0"
       id="path1301"
       d="m 341.62929,439.25773 c -1.21157,-0.62349 -1.74986,-1.46419 -1.75668,-2.74357 -0.0167,-3.12924 4.78184,-4.15618 6.50947,-1.39311 1.66982,2.67061 -1.77516,5.66901 -4.75279,4.13668 z"
       style="fill:#454837;fill-opacity:1;stroke:none;stroke-width:0;stroke-opacity:0" />
    <path
       inkscape:connector-curvature="0"
       id="path1303"
       d="m 340.13777,452.5611 v -10.44068 h 3.25424 3.25423 v 10.44068 10.44068 h -3.25423 -3.25424 z"
       style="fill:#454837;fill-opacity:1;stroke:none;stroke-width:0;stroke-opacity:0" />
    <path
       inkscape:connector-curvature="0"
       id="path1305"
       d="m 358.13374,463.22919 c -4.34253,-0.49032 -7.39685,-3.83365 -7.932,-8.68258 -0.61793,-5.59882 1.24242,-9.92391 5.07893,-11.80794 1.39612,-0.68561 1.80507,-0.75384 4.51812,-0.75384 2.46887,0 3.19757,0.0992 4.22763,0.57565 2.41973,1.11919 4.11536,3.45335 4.48901,6.17943 l 0.17064,1.24492 h -3.01992 c -2.8635,0 -3.01991,-0.0288 -3.01991,-0.55584 0,-0.79987 -0.72759,-2.09094 -1.37304,-2.43637 -0.30462,-0.16303 -1.01718,-0.30281 -1.58346,-0.31063 -2.32136,-0.032 -3.06925,1.15768 -3.23013,5.13832 -0.17695,4.37845 0.57376,6.35861 2.55131,6.7296 1.80585,0.33878 3.63532,-0.89414 3.63532,-2.44992 0,-0.35436 0.47312,-0.42025 3.01771,-0.42025 h 3.01771 l -0.18392,1.15022 c -0.71635,4.47981 -4.83587,7.0234 -10.364,6.39923 z"
       style="fill:#454837;fill-opacity:1;stroke:none;stroke-width:0;stroke-opacity:0" />
    <path
       inkscape:connector-curvature="0"
       id="path1307"
       d="m 377.96828,463.23704 c -3.19083,-0.3758 -5.68431,-1.99791 -6.81999,-4.43668 -1.07629,-2.31125 -1.08055,-2.30706 2.34541,-2.30706 2.77374,0 2.98305,0.037 2.98305,0.52725 0,0.28999 0.28864,0.86282 0.64143,1.27296 0.55212,0.64187 0.88944,0.7615 2.42257,0.85912 1.63768,0.10428 1.83861,0.0559 2.49472,-0.60018 0.88005,-0.88004 0.82594,-1.93567 -0.13499,-2.63332 -0.37288,-0.27072 -1.97193,-0.84037 -3.55343,-1.26587 -4.49926,-1.21053 -6.48673,-2.69039 -7.06405,-5.25984 -0.58766,-2.61549 1.08281,-5.50697 3.8954,-6.74267 1.90749,-0.83805 5.97756,-1.05644 8.11396,-0.43537 2.94254,0.85542 4.80472,2.59693 5.34417,4.99788 l 0.25715,1.14445 h -3.22542 c -3.06851,0 -3.22541,-0.027 -3.22541,-0.5547 0,-0.30509 -0.29953,-0.85424 -0.66564,-1.22034 -0.90541,-0.90541 -2.80623,-0.93336 -3.7719,-0.0555 -1.87831,1.7076 -0.81008,3.05733 3.1415,3.96934 5.41109,1.24886 7.53793,3.05365 7.52887,6.38884 -0.012,4.41934 -4.50155,7.08255 -10.7074,6.35166 z"
       style="fill:#454837;fill-opacity:1;stroke:none;stroke-width:0;stroke-opacity:0" />
    <path
       inkscape:connector-curvature="0"
       id="path1309"
       d="m 995.56324,462.69322 c -2.75259,-1.08681 -5.4341,-3.83771 -6.57893,-6.74918 -1.26332,-3.21279 -1.26332,-10.41086 0,-13.62365 3.12722,-7.95297 13.59729,-10.16034 19.62099,-4.13663 2.379,2.37907 3.4869,5.27592 3.7304,9.75401 0.3805,6.99939 -1.8797,11.91175 -6.5905,14.32407 -2.755,1.41078 -7.22207,1.60003 -10.18196,0.43138 z m 7.84916,-5.31811 c 1.6114,-1.51386 2.2982,-3.97715 2.2982,-8.24289 0,-4.2986 -0.6871,-6.72934 -2.3416,-8.28368 -1.3191,-1.23921 -4.98109,-1.32849 -6.30287,-0.15367 -1.76254,1.56659 -2.42099,3.86133 -2.42099,8.43735 0,4.98901 0.77788,7.31487 2.88971,8.64022 1.68787,1.05927 4.53175,0.86703 5.87755,-0.39733 z"
       style="fill:#454837;fill-opacity:1;stroke:none;stroke-width:0;stroke-opacity:0" />
    <path
       inkscape:connector-curvature="0"
       id="path1311"
       d="m 1017.4079,454.88495 v -8.24558 h -1.5341 -1.5341 v -2.10934 -2.10934 h 1.5341 c 1.4746,0 1.5341,-0.0483 1.5362,-1.24642 0.01,-4.92286 2.9345,-7.93093 7.7327,-7.94953 3.21,-0.0124 3.3871,0.11961 3.3871,2.52546 v 2.06831 h -1.4487 c -2.2241,0 -3.1535,0.85408 -3.1535,2.89811 v 1.70407 h 1.9176 1.9176 v 2.10934 2.10934 h -1.9176 -1.9176 v 8.24558 8.24558 h -3.2599 -3.2598 z"
       style="fill:#454837;fill-opacity:1;stroke:none;stroke-width:0;stroke-opacity:0" />
    <path
       inkscape:connector-curvature="0"
       id="path1313"
       d="m 1042.3556,449.81665 c -1.5582,-7.33725 -2.9104,-13.64246 -3.005,-14.0116 -0.1537,-0.60056 0.1758,-0.67115 3.1328,-0.67115 1.8175,0 3.3046,0.13437 3.3046,0.2986 0,0.69969 3.075,17.09432 3.2366,17.25585 0.098,0.0978 0.2761,-0.2309 0.3964,-0.73039 0.3685,-1.53083 3.6538,-16.52973 3.6538,-16.68158 0,-0.0784 1.2605,-0.14248 2.801,-0.14248 h 2.801 l 1.8597,8.53322 c 1.0229,4.69327 1.9821,8.6733 2.1317,8.84451 0.1495,0.1712 0.5609,-1.29574 0.9141,-3.25989 0.3531,-1.96414 1.0864,-5.94417 1.6295,-8.8445 l 0.9874,-5.27334 h 3.2585 c 2.4442,0 3.2148,0.11979 3.0839,0.47939 -0.096,0.26367 -1.452,6.56198 -3.0133,13.99625 l -2.8387,13.51685 -3.4516,7.3e-4 -3.4517,7.3e-4 -0.9046,-3.9297 c -2.1947,-9.53389 -2.8665,-12.17533 -3.05,-11.9919 -0.1077,0.10776 -1.0042,3.69166 -1.9921,7.96422 l -1.7963,7.76831 -3.4273,0.10916 -3.4273,0.10916 z"
       style="fill:#454837;fill-opacity:1;stroke:none;stroke-width:0;stroke-opacity:0" />
    <path
       inkscape:connector-curvature="0"
       id="path1315"
       d="m 1075.3187,448.36519 v -14.76535 h 3.0681 3.0682 v 5.57904 5.57905 l 1.4927,-1.19956 c 2.458,-1.9753 6.2119,-2.02741 8.4814,-0.11773 2.1222,1.78574 2.3833,2.96849 2.5897,11.73195 l 0.1875,7.95794 h -3.3076 -3.3075 v -7.45071 -7.45072 l -1.0105,-0.79487 c -1.1999,-0.94384 -2.4479,-1.00937 -3.9942,-0.20974 l -1.1315,0.58512 v 7.66046 7.66046 h -3.0682 -3.0681 z"
       style="fill:#454837;fill-opacity:1;stroke:none;stroke-width:0;stroke-opacity:0" />
    <path
       inkscape:connector-curvature="0"
       id="path1317"
       d="m 1104.0706,462.92499 c -2.2837,-0.704 -4.6896,-2.80643 -5.8005,-5.06882 -0.7303,-1.48737 -0.8913,-2.42233 -0.8796,-5.10721 0.012,-2.80797 0.1716,-3.60784 1.0939,-5.49302 1.818,-3.7159 5.2958,-5.52657 9.826,-5.11579 5.3403,0.48425 8.428,4.26245 8.428,10.3129 v 2.24014 h -6.5198 c -4.2964,0 -6.5197,0.13728 -6.5197,0.40256 0,1.00379 1.2337,2.61767 2.438,3.18912 1.8396,0.87295 3.2603,0.78466 5.4549,-0.33901 l 1.8867,-0.966 1.2407,1.4454 c 0.6824,0.79496 1.2433,1.56605 1.2465,1.71351 0,0.14747 -0.5906,0.72291 -1.3194,1.27876 -2.6148,1.99446 -6.9783,2.61642 -10.5757,1.50746 z m 6.5315,-13.2175 c 0,-3.34394 -5.0562,-4.06174 -6.3751,-0.90504 -0.2905,0.69516 -0.5281,1.44204 -0.5281,1.65975 0,0.24278 1.3346,0.39584 3.4516,0.39584 h 3.4516 z"
       style="fill:#454837;fill-opacity:1;stroke:none;stroke-width:0;stroke-opacity:0" />
    <path
       inkscape:connector-curvature="0"
       id="path1319"
       d="m 1119.8065,452.77561 v -10.35492 h 2.8337 2.8337 l 0.248,1.32189 0.248,1.32189 1.2566,-1.37126 c 1.0643,-1.16137 1.5702,-1.40138 3.3052,-1.56809 l 2.0485,-0.19684 -0.2506,1.25294 c -0.1378,0.68911 -0.2506,2.00798 -0.2506,2.93081 v 1.67788 h -1.5091 c -1.7637,0 -3.1037,0.44896 -3.9923,1.33758 -0.5422,0.54214 -0.6348,1.61031 -0.6348,7.31892 v 6.68412 h -3.0682 -3.0681 z"
       style="fill:#454837;fill-opacity:1;stroke:none;stroke-width:0;stroke-opacity:0" />
    <path
       inkscape:connector-curvature="0"
       id="path1321"
       d="m 1141.0397,463.09638 c -2.3622,-0.68462 -4.8487,-2.73355 -6.0091,-4.95155 -1.0361,-1.98034 -1.0942,-2.33214 -0.9502,-5.75273 0.1681,-3.99231 0.852,-5.84832 2.8533,-7.74358 3.408,-3.22742 9.4436,-3.50779 12.9683,-0.60243 2.1115,1.74043 2.9909,3.80147 3.1929,7.4831 l 0.1737,3.164 h -6.5679 c -3.6123,0 -6.5672,0.12944 -6.5664,0.28764 0,0.89804 1.7419,2.90707 2.9509,3.41224 1.7395,0.72681 4.2554,0.41774 5.6724,-0.69682 l 1.0083,-0.7932 0.9714,0.90853 c 1.6699,1.56182 1.8431,2.20676 0.8707,3.24188 -1.8837,2.00511 -7.1717,3.02732 -10.5683,2.04292 z m 5.9964,-13.52121 c 0,-2.28695 -2.83,-3.6826 -4.8215,-2.37774 -0.8178,0.53584 -2.0818,2.63452 -2.0818,3.45653 0,0.11224 1.5533,0.20408 3.4517,0.20408 h 3.4516 z"
       style="fill:#454837;fill-opacity:1;stroke:none;stroke-width:0;stroke-opacity:0" />
    <path
       inkscape:connector-curvature="0"
       id="path1323"
       d="m 1173.4987,458.08273 v -5.0478 l -4.4104,-8.7293 c -2.4258,-4.80112 -4.4105,-8.82885 -4.4105,-8.95052 0,-0.12167 1.5341,-0.22121 3.409,-0.22121 h 3.4089 l 2.5864,6.12746 c 1.4225,3.3701 2.696,6.05972 2.83,5.97694 0.1339,-0.0828 1.3622,-2.83607 2.7296,-6.11841 l 2.4861,-5.96789 3.576,-0.009 3.576,-0.009 -4.6307,9.0671 -4.6306,9.06709 v 4.93122 4.93122 h -3.2599 -3.2599 z"
       style="fill:#454837;fill-opacity:1;stroke:none;stroke-width:0;stroke-opacity:0" />
    <path
       inkscape:connector-curvature="0"
       id="path1325"
       d="m 1195.4747,462.88312 c -3.6764,-1.30227 -5.9812,-5.19708 -5.9812,-10.10751 0,-6.58678 3.8324,-10.73843 9.9126,-10.73843 4.0543,0 7.2032,1.8779 8.8735,5.29174 0.8971,1.83372 1.0504,2.62854 1.0504,5.44669 0,2.83339 -0.1513,3.60894 -1.0707,5.48818 -1.7312,3.5384 -4.6127,5.22804 -8.8733,5.20315 -1.2656,-0.007 -3.0257,-0.27011 -3.9113,-0.58382 z m 5.4389,-4.35233 c 1.3906,-0.52868 2.1158,-2.51017 2.1158,-5.78078 0,-3.13765 -0.7122,-5.02076 -2.1459,-5.67399 -1.4953,-0.68132 -2.344,-0.52619 -3.6872,0.67397 -1.1639,1.03992 -1.2526,1.29971 -1.393,4.08058 -0.1857,3.67754 0.3748,5.72581 1.7749,6.4857 1.244,0.67522 1.9964,0.72361 3.3354,0.21452 z"
       style="fill:#454837;fill-opacity:1;stroke:none;stroke-width:0;stroke-opacity:0" />
    <path
       inkscape:connector-curvature="0"
       id="path1327"
       d="m 1216.2607,462.97616 c -3.1016,-1.36907 -3.6057,-3.14672 -3.6266,-12.78928 l -0.017,-7.76619 h 3.0681 3.0681 v 7.30423 c 0,7.24375 0.01,7.31202 0.9414,8.24559 1.0788,1.07878 2.436,1.19777 4.0634,0.35623 l 1.1315,-0.58512 v -7.66046 -7.66047 h 3.2599 3.2598 v 10.37106 10.37105 l -2.9695,-0.11201 c -2.9334,-0.11065 -2.972,-0.1254 -3.164,-1.209 l -0.1945,-1.09699 -0.767,0.86228 c -1.6154,1.816 -5.5327,2.48192 -8.0538,1.36908 z"
       style="fill:#454837;fill-opacity:1;stroke:none;stroke-width:0;stroke-opacity:0" />
    <path
       inkscape:connector-curvature="0"
       id="path1329"
       d="m 1234.4777,438.96905 v -5.36921 h 2.1616 2.1617 l -0.2607,4.12279 c -0.1433,2.26753 -0.3587,4.68368 -0.4785,5.36922 -0.2069,1.18379 -0.3024,1.24642 -1.901,1.24642 h -1.6831 z"
       style="fill:#454837;fill-opacity:1;stroke:none;stroke-width:0;stroke-opacity:0" />
    <path
       inkscape:connector-curvature="0"
       id="path1331"
       d="m 1243.308,453.26877 c -1.7708,-5.43911 -3.2925,-10.10501 -3.3814,-10.36868 -0.121,-0.35857 0.6587,-0.4794 3.0937,-0.4794 h 3.2555 l 1.6286,6.53459 c 0.8957,3.59402 1.7359,6.42915 1.8671,6.30028 0.1312,-0.12887 0.9382,-3.02629 1.7934,-6.43871 l 1.5549,-6.2044 3.2975,-0.11026 3.2974,-0.11026 -2.8244,8.73936 c -1.5534,4.80665 -3.0635,9.42969 -3.3558,10.27342 l -0.5315,1.53407 -3.2376,0.10963 -3.2377,0.10964 z"
       style="fill:#454837;fill-opacity:1;stroke:none;stroke-width:0;stroke-opacity:0" />
    <path
       inkscape:connector-curvature="0"
       id="path1333"
       d="m 1268.1187,462.96286 c -4.399,-1.56939 -6.7949,-5.08952 -6.7949,-9.98311 0,-6.39611 3.3304,-10.39137 9.0446,-10.85005 3.1,-0.24884 5.7091,0.61621 7.5512,2.50356 1.6761,1.71727 2.4379,3.72037 2.7956,7.3509 l 0.267,2.70903 h -6.5694 c -6.1553,0 -6.5693,0.0451 -6.5693,0.71531 0,1.11708 1.4111,2.63626 2.9074,3.13008 1.6069,0.53033 3.6844,0.22664 5.4384,-0.79501 l 1.2508,-0.72854 1.2948,1.41292 c 0.7122,0.77711 1.2253,1.5922 1.1402,1.81133 -0.2373,0.61134 -2.6334,2.14577 -4.253,2.72358 -0.7978,0.28464 -2.4861,0.51752 -3.7517,0.51752 -1.2656,0 -2.9538,-0.23288 -3.7517,-0.51752 z m 6.475,-13.34992 c -0.3288,-1.64369 -1.3054,-2.56379 -3.016,-2.84138 -1.2029,-0.19521 -1.5602,-0.0641 -2.5658,0.94156 -0.6976,0.69759 -1.1684,1.56654 -1.1684,2.15663 v 0.98829 h 3.4996 3.4996 z"
       style="fill:#454837;fill-opacity:1;stroke:none;stroke-width:0;stroke-opacity:0" />
    <path
       inkscape:connector-curvature="0"
       id="path1335"
       d="m 1293.9226,449.09692 v -14.03361 l 7.411,0.13118 c 7.3759,0.13054 7.4218,0.13667 9.6764,1.29036 2.7946,1.42996 3.9905,3.26249 3.999,6.1276 0.01,2.35511 -0.9262,4.31364 -2.5823,5.41958 l -1.247,0.83269 1.4387,0.73124 c 3.6906,1.87578 4.1697,7.63401 0.9067,10.897 -2.2018,2.20172 -4.2801,2.63757 -12.5771,2.63757 h -7.0254 z m 13.7936,8.4793 c 1.2336,-0.63789 1.7582,-2.19895 1.3553,-4.0331 -0.4048,-1.84307 -1.4532,-2.30157 -5.2629,-2.30157 h -3.3663 v 3.45164 3.45164 h 3.0872 c 1.978,0 3.4822,-0.2043 4.1867,-0.56861 z m -1.1867,-10.97719 c 0.6687,-0.23312 1.3848,-0.73952 1.5912,-1.12534 0.6109,-1.14143 0.431,-3.28299 -0.3577,-4.2569 -0.648,-0.80025 -1.1155,-0.92106 -4.0269,-1.04063 l -3.2938,-0.13527 v 3.491 3.49099 h 2.4357 c 1.3396,0 2.9827,-0.19073 3.6515,-0.42385 z"
       style="fill:#454837;fill-opacity:1;stroke:none;stroke-width:0;stroke-opacity:0" />
    <path
       inkscape:connector-curvature="0"
       id="path1337"
       d="m 1325.2102,462.74157 c -2.2,-0.85904 -4.1684,-2.62477 -5.3381,-4.7885 -0.6879,-1.27265 -0.827,-2.1549 -0.8159,-5.17746 0.011,-3.04788 0.1593,-3.92548 0.9062,-5.36921 2.0222,-3.909 4.1795,-5.1677 8.8601,-5.16955 3.5397,-10e-4 4.7172,0.41346 6.6799,2.35345 1.6085,1.58986 2.4952,3.88776 2.7743,7.19004 l 0.2462,2.91285 h -6.576 c -7.2562,0 -7.4053,0.0594 -5.8026,2.31016 1.471,2.06583 4.7646,2.376 7.612,0.71683 l 1.2904,-0.75193 1.2824,1.4512 c 0.7053,0.79816 1.2895,1.58444 1.2983,1.74728 0.025,0.46582 -3.4571,2.5499 -4.9565,2.96646 -2.1162,0.5879 -5.3925,0.41593 -7.4607,-0.39162 z m 7.0639,-12.82094 c 0,-0.51557 -0.4131,-1.4177 -0.9181,-2.00474 -0.7265,-0.84469 -1.2461,-1.06733 -2.4909,-1.06733 -1.8603,0 -2.9722,0.92001 -3.3411,2.76438 l -0.249,1.2451 h 3.4995 c 3.456,0 3.4996,-0.0117 3.4996,-0.93741 z"
       style="fill:#454837;fill-opacity:1;stroke:none;stroke-width:0;stroke-opacity:0" />
    <path
       inkscape:connector-curvature="0"
       id="path1339"
       d="m 1347.5064,462.98588 c -4.4917,-1.67373 -6.7949,-5.06545 -6.7949,-10.00613 0,-6.39611 3.3304,-10.39137 9.0446,-10.85005 3.3436,-0.26839 5.86,0.63677 7.7548,2.78941 1.6501,1.87464 2.1992,3.40081 2.5852,7.18535 l 0.264,2.58873 h -6.5644 c -6.1506,0 -6.5645,0.0451 -6.5645,0.71531 0,1.11708 1.4111,2.63626 2.9074,3.13008 1.609,0.53101 3.6849,0.22641 5.4452,-0.799 l 1.2575,-0.73253 1.1282,1.24004 c 0.6205,0.68203 1.1333,1.42569 1.1395,1.65259 0.016,0.57181 -1.4529,1.85707 -3.0569,2.67548 -1.7775,0.90691 -6.5929,1.13836 -8.5457,0.41072 z m 6.475,-13.37294 c -0.3261,-1.6303 -1.3031,-2.56342 -2.9667,-2.83339 -1.6482,-0.26746 -3.2267,0.92036 -3.7635,2.83206 l -0.3499,1.24643 h 3.6645 3.6646 z"
       style="fill:#454837;fill-opacity:1;stroke:none;stroke-width:0;stroke-opacity:0" />
    <path
       inkscape:connector-curvature="0"
       id="path1341"
       d="m 1362.9554,452.77561 v -10.35492 h 2.8859 c 2.8788,0 2.8865,0.003 3.1088,1.11401 l 0.2228,1.114 1.7165,-1.20988 c 1.5215,-1.07249 2.0145,-1.20988 4.3416,-1.20988 3.078,0 4.3441,0.70462 5.5578,3.09287 0.681,1.33991 0.7815,2.424 0.8959,9.65902 l 0.1288,8.1497 h -3.101 -3.1011 l -0.01,-6.23212 c -0.01,-6.22142 -0.3138,-8.81788 -1.1307,-9.63478 -0.7172,-0.71722 -3.6629,-0.52519 -4.5726,0.29809 -0.7677,0.69477 -0.8073,1.09431 -0.8073,8.1497 v 7.41911 h -3.0681 -3.0681 z"
       style="fill:#454837;fill-opacity:1;stroke:none;stroke-width:0;stroke-opacity:0" />
  </g>
</svg>
