<?xml version="1.0" encoding="UTF-8" standalone="no"?>
<svg
   xmlns:dc="http://purl.org/dc/elements/1.1/"
   xmlns:cc="http://creativecommons.org/ns#"
   xmlns:rdf="http://www.w3.org/1999/02/22-rdf-syntax-ns#"
   xmlns:svg="http://www.w3.org/2000/svg"
   xmlns="http://www.w3.org/2000/svg"
   xmlns:sodipodi="http://sodipodi.sourceforge.net/DTD/sodipodi-0.dtd"
   xmlns:inkscape="http://www.inkscape.org/namespaces/inkscape"
   viewBox="0 0 1400 560"
   version="1.1"
   id="svg4"
   sodipodi:docname="small-tile.svg"
   width="1400"
   height="560"
   inkscape:version="0.92.2 (5c3e80d, 2017-08-06)"
   inkscape:export-filename="Y:\GitHub\where-have-i-been\img\small-tile.png"
   inkscape:export-xdpi="96"
   inkscape:export-ydpi="96">
  <metadata
     id="metadata10">
    <rdf:RDF>
      <cc:Work
         rdf:about="">
        <dc:format>image/svg+xml</dc:format>
        <dc:type
           rdf:resource="http://purl.org/dc/dcmitype/StillImage" />
        <dc:title></dc:title>
      </cc:Work>
    </rdf:RDF>
  </metadata>
  <defs
     id="defs8">
    <pattern
       y="0"
       x="0"
       height="6"
       width="6"
       patternUnits="userSpaceOnUse"
       id="EMFhbasepattern" />
  </defs>
  <sodipodi:namedview
     pagecolor="#ffffff"
     bordercolor="#666666"
     borderopacity="1"
     objecttolerance="10"
     gridtolerance="10"
     guidetolerance="10"
     inkscape:pageopacity="0"
     inkscape:pageshadow="2"
     inkscape:window-width="1920"
     inkscape:window-height="1017"
     id="namedview6"
     showgrid="false"
     inkscape:zoom="0.65186406"
     inkscape:cx="552.5793"
     inkscape:cy="94.885733"
     inkscape:window-x="-8"
     inkscape:window-y="-8"
     inkscape:window-maximized="1"
     inkscape:current-layer="svg4" />
  <g
     id="g818"
     transform="matrix(0.48165478,0,0,0.48165478,96.696377,215.77837)">
    <path
       inkscape:connector-curvature="0"
       style="fill:#454837;stroke-width:0.8888889"
       id="path2"
       d="M 452.00444,228.59555 339.12622,278.73423 184.15911,227.07822 a 42.659556,42.659556 0 0 0 -30.82133,1.488 L 25.337778,285.45512 A 42.666667,42.666667 0 0 0 0,324.44445 v 255.97067 c 0,31.05599 31.992,51.43466 59.995556,38.98932 l 112.878224,-50.13866 154.968,51.656 a 42.659556,42.659556 0 0 0 30.82133,-1.488 l 128,-56.88889 A 42.666667,42.666667 0 0 0 512,523.55556 V 267.5849 c 0,-31.05601 -31.992,-51.43468 -59.99556,-38.98935 z M 320,573.33334 192,530.66667 v -256 l 128,42.66667 z m -277.333333,7.11111 v -256 L 149.33333,277.03734 v 256 z M 469.33333,523.55556 362.66667,570.96267 v -256 l 106.66666,-47.40711 z" />
    <path
       sodipodi:nodetypes="ccccccccccc"
       inkscape:connector-curvature="0"
       id="path25"
       d="m 407.29833,426.82717 c -73.5839,27.85236 -73.5839,27.85236 -73.5839,27.85236 l -87.56092,-75.79902 -77.1059,16.98944 -128.074203,68.61117 v 13.0688 l 130.034523,-69.26461 72.53181,-16.98944 85.60062,75.79902 83.77902,-34.06156 z"
       style="fill:#454837;stroke:#454837;stroke-width:0.85190785px;stroke-linecap:butt;stroke-linejoin:miter;stroke-opacity:1" />
    <path
       inkscape:connector-curvature="0"
       style="fill:#2a7fff;fill-opacity:1;fill-rule:nonzero;stroke:none;stroke-width:0.33968437"
       d="m 401.28787,433.69032 c -49.34898,-71.55059 -58.5068,-78.88772 -58.5068,-105.19268 0,-36.00627 29.21264,-65.2189 65.21892,-65.2189 36.00627,0 65.21891,29.21263 65.21891,65.2189 0,26.30496 -9.15782,33.64209 -58.5068,105.19268 -3.26095,4.67402 -10.16328,4.67402 -13.42423,0 z m 6.71212,-78.01813 c 15.00035,0 27.17454,-12.1742 27.17454,-27.17455 0,-15.00035 -12.17419,-27.17454 -27.17454,-27.17454 -15.00036,0 -27.17455,12.17419 -27.17455,27.17454 0,15.00035 12.17419,27.17455 27.17455,27.17455 z"
       id="path15" />
  </g>
  <g
     id="g894"
     transform="matrix(0.49547636,0,0,0.49547636,-7.8467975,269.52324)">
    <path
       inkscape:connector-curvature="0"
       id="path844"
       d="M 42.929499,96.091636 C 42.40264,93.847254 31.20028,41.097708 29.798627,34.261127 l -0.611593,-2.983051 h 7.559469 7.55947 l 2.869402,15.457627 c 4.302449,23.177523 5.114171,27.058567 5.565012,26.607725 0.226482,-0.226481 2.451231,-9.783838 4.943889,-21.238568 l 4.532105,-20.826784 h 6.720225 6.720225 l 4.686985,21.158655 c 2.577842,11.637261 4.910808,20.934833 5.184369,20.661273 0.439196,-0.439196 7.777166,-38.937759 7.815966,-41.006368 0.019,-1.012758 15.201699,-1.090894 15.201699,-0.07823 0,0.961643 -12.961483,62.145743 -13.689486,64.620607 -0.465302,1.581803 -1.868453,1.898305 -8.415762,1.898305 H 78.583244 L 73.88368,78.735703 C 70.407975,64.094529 68.945862,59.504072 68.269237,61.108585 c -0.81625,1.935615 -8.536944,35.204138 -8.536944,36.785754 0,0.350886 -3.651718,0.637974 -8.114927,0.637974 -7.522556,0 -8.15675,-0.178164 -8.687867,-2.440677 z"
       style="fill:#2a7fff;fill-opacity:1;stroke:#2a7fff;stroke-width:1.08474576;stroke-opacity:1" />
    <path
       inkscape:connector-curvature="0"
       id="path846"
       d="m 115.05433,62.735703 v -35.79661 h 7.59322 7.59322 V 40.687502 54.43591 l 2.44068,-2.223025 c 8.22751,-7.493804 20.35866,-5.817823 25.13096,3.471971 1.94457,3.78532 2.28094,6.795862 2.63607,23.59322 l 0.40709,19.254237 h -7.71418 -7.71418 V 81.789371 c 0,-9.208619 -0.46607,-17.968802 -1.03571,-19.467072 -1.38444,-3.641334 -7.56683,-4.935264 -11.44366,-2.395074 l -2.70707,1.773746 v 18.415671 18.415671 h -7.59322 -7.59322 z"
       style="fill:#2a7fff;fill-opacity:1;stroke:#2a7fff;stroke-width:1.08474576;stroke-opacity:1" />
    <path
       inkscape:connector-curvature="0"
       id="path850"
       d="m 183.42572,97.325437 c -4.7806,-1.907923 -9.76075,-6.409768 -12.23437,-11.059355 -3.35107,-6.298919 -3.37719,-19.906855 -0.0504,-26.242243 4.40982,-8.397768 11.34078,-12.474576 21.20797,-12.474576 13.70563,0 22.47786,9.834614 22.49593,25.220339 l 0.006,5.152542 h -15.72882 c -8.65084,0 -15.72881,0.268309 -15.72881,0.596241 0,0.327933 0.69559,1.941375 1.54577,3.585427 2.91045,5.628193 11.05512,7.218399 18.23158,3.559628 l 3.96489,-2.021416 3.0137,3.145619 c 3.66976,3.830408 2.89643,5.635342 -3.97032,9.266566 -3.6632,1.937148 -6.36568,2.463095 -12.37996,2.409347 -4.23159,-0.03781 -8.89955,-0.549971 -10.37325,-1.138119 z m 16.54693,-31.877869 c -0.2699,-3.749976 -3.74297,-7.050848 -7.41868,-7.050848 -3.30993,0 -7.80741,4.086994 -8.70708,7.91237 l -0.71285,3.031013 8.53642,-0.319148 8.53641,-0.31915 z"
       style="fill:#2a7fff;fill-opacity:1;stroke:#2a7fff;stroke-width:1.08474576;stroke-opacity:1" />
    <path
       inkscape:connector-curvature="0"
       id="path852"
       d="M 222.44416,73.583161 V 48.634008 h 7.05084 c 6.79774,0 7.05085,0.09735 7.05085,2.711865 0,3.43235 0.22687,3.402856 4.1721,-0.542373 2.40277,-2.40277 4.26945,-3.254237 7.13429,-3.254237 h 3.88005 v 7.050847 7.050848 h -4.63999 c -2.552,0 -5.72488,0.759882 -7.05085,1.688628 -2.31434,1.621026 -2.41085,2.359272 -2.41085,18.440678 v 16.752049 h -7.59322 -7.59322 z"
       style="fill:#2a7fff;fill-opacity:1;stroke:#2a7fff;stroke-width:1.08474576;stroke-opacity:1" />
    <path
       inkscape:connector-curvature="0"
       id="path854"
       d="m 269.33498,96.292028 c -9.34914,-4.739707 -14.05239,-14.079826 -12.98996,-25.796572 1.30443,-14.385442 10.20922,-22.946193 23.86835,-22.946193 13.70562,0 22.47786,9.834614 22.49592,25.220339 l 0.006,5.152542 h -15.72881 c -8.65085,0 -15.72881,0.268309 -15.72881,0.596241 0,0.327933 0.75558,2.057378 1.67907,3.843212 2.8837,5.576465 10.95279,7.000345 18.06592,3.187934 l 3.98406,-2.135326 2.77954,3.303298 c 1.52875,1.816815 2.77954,3.747056 2.77954,4.289427 0,0.54237 -2.03822,2.335426 -4.52938,3.984569 -3.8439,2.544656 -5.85494,3.047754 -13.28814,3.32428 -7.2576,0.269993 -9.55306,-0.07686 -13.39335,-2.023751 z m 18.38356,-30.831575 c -0.4413,-4.055187 -1.67916,-5.573136 -5.28226,-6.477455 -3.79414,-0.952268 -8.4469,1.11368 -9.9531,4.419436 -2.51276,5.5149 -1.94354,5.960064 7.18132,5.616186 l 8.40678,-0.316815 z"
       style="fill:#2a7fff;fill-opacity:1;stroke:#2a7fff;stroke-width:1.08474576;stroke-opacity:1" />
    <path
       inkscape:connector-curvature="0"
       id="path856"
       d="M 335.25772,64.905195 V 31.278076 h 7.59322 7.59322 V 44.837398 58.39672 h 12.47457 12.47458 V 44.837398 31.278076 h 7.59322 7.59322 v 33.627119 33.627118 h -7.59322 -7.59322 V 83.888246 69.244178 h -12.47458 -12.47457 v 14.644068 14.644067 h -7.59322 -7.59322 z"
       style="fill:#2a7fff;fill-opacity:1;stroke:#2a7fff;stroke-width:1.08474576;stroke-opacity:1" />
    <path
       inkscape:connector-curvature="0"
       id="path858"
       d="m 407.12888,96.74828 c -10.3921,-5.123104 -10.30802,-20.20276 0.14252,-25.560201 2.83871,-1.455261 7.32074,-2.473614 12.3253,-2.800409 l 7.86441,-0.513541 v -3.576477 c 0,-4.036019 -2.35297,-6.985678 -5.57253,-6.985678 -3.08686,0 -6.35968,1.973454 -6.35968,3.834776 0,1.244112 -1.64791,1.588953 -7.59322,1.588953 -8.5799,0 -9.11261,-0.678776 -5.14885,-6.560597 3.70534,-5.498361 8.56258,-7.814615 17.47355,-8.332552 6.54439,-0.380382 8.48895,-0.06008 12.56095,2.069004 8.60654,4.50001 9.19898,6.101382 9.88934,26.730687 0.33302,9.951402 0.99541,18.947696 1.47198,19.991763 0.78106,1.711122 0.10632,1.898305 -6.84278,1.898305 -4.2401,0 -7.71675,-0.366101 -7.72588,-0.813559 -0.009,-0.447457 -0.44928,-1.496911 -0.97809,-2.33212 -0.79333,-1.252987 -1.47998,-1.110709 -3.92629,0.81356 -3.63898,2.862421 -12.33616,3.133559 -17.58073,0.548086 z m 17.92137,-9.667306 c 1.87623,-1.314161 2.41086,-2.75747 2.41086,-6.508475 v -4.819847 h -4.52476 c -2.68808,0 -5.32998,0.728719 -6.50847,1.795242 -2.25186,2.0379 -2.65793,7.944116 -0.68203,9.920013 1.81562,1.815614 6.43403,1.623552 9.3044,-0.386933 z"
       style="fill:#2a7fff;fill-opacity:1;stroke:#2a7fff;stroke-width:1.08474576;stroke-opacity:1" />
    <path
       inkscape:connector-curvature="0"
       id="path860"
       d="m 463.76507,97.176381 c -1.81208,-4.824399 -15.69379,-47.016509 -15.69379,-47.699765 0,-0.463434 3.39813,-0.842608 7.55141,-0.842608 h 7.55141 l 1.07273,4.067797 c 0.59,2.237288 2.39065,9.367566 4.00143,15.845061 1.69007,6.796314 3.25478,11.154636 3.6997,10.305085 0.42405,-0.809699 2.35996,-7.939977 4.30203,-15.845061 l 3.53103,-14.372882 h 7.46716 c 4.10694,0 7.46941,0.366102 7.47215,0.81356 0.003,0.447457 -3.50141,11.674576 -7.787,24.949152 l -7.79199,24.135593 h -7.43349 c -4.95199,0 -7.60349,-0.452644 -7.94278,-1.355932 z"
       style="fill:#2a7fff;fill-opacity:1;stroke:#2a7fff;stroke-width:1.08474576;stroke-opacity:1" />
    <path
       inkscape:connector-curvature="0"
       id="path862"
       d="m 512.28533,96.161468 c -10.91899,-5.293524 -15.64506,-18.394527 -11.57714,-32.092697 3.16435,-10.655499 11.00709,-16.471862 22.21054,-16.471862 14.0598,0 22.77966,9.386438 22.77966,24.521002 v 5.804233 h -15.72881 c -8.65085,0 -15.72881,0.268309 -15.72881,0.596241 0,0.327933 0.69559,1.941375 1.54576,3.585427 2.91046,5.628193 11.05512,7.218399 18.23159,3.559628 l 3.96489,-2.021416 3.0137,3.145619 c 3.66976,3.830408 2.89643,5.635342 -3.97032,9.266566 -6.31018,3.3369 -17.97495,3.387471 -24.74106,0.107259 z M 531.5967,66.483006 c 0,-3.528789 -4.5234,-8.086286 -8.0258,-8.086286 -3.44239,0 -7.95812,4.006255 -8.86452,7.864407 l -0.7008,2.983051 h 8.79556 c 8.70065,0 8.79556,-0.0298 8.79556,-2.761172 z"
       style="fill:#2a7fff;fill-opacity:1;stroke:#2a7fff;stroke-width:1.08474576;stroke-opacity:1" />
    <path
       inkscape:connector-curvature="0"
       id="path864"
       d="M 579.32551,64.905195 V 31.278076 h 7.59322 7.59322 v 33.627119 33.627118 h -7.59322 -7.59322 z"
       style="fill:#2a7fff;fill-opacity:1;stroke:#2a7fff;stroke-width:1.08474576;stroke-opacity:1" />
    <path
       inkscape:connector-curvature="0"
       id="path866"
       d="M 631.39331,64.954639 V 31.095213 l 18.16949,0.362618 c 17.0354,0.339984 18.46744,0.531886 22.94297,3.074482 10.57879,6.009926 11.87386,19.700261 2.57023,27.170059 -2.32568,1.867265 -2.63701,2.541169 -1.37761,2.981977 0.89492,0.313233 3.21356,2.150725 5.15255,4.083315 3.18897,3.17846 3.52542,4.129985 3.52542,9.970336 0,8.217875 -2.85382,12.821587 -10.20786,16.467061 -4.81791,2.388288 -7.00647,2.684908 -23.04928,3.123927 l -17.72591,0.485075 z m 33.53117,19.020436 c 3.03316,-2.744967 3.0853,-9.57205 0.096,-12.561406 -1.78381,-1.783803 -3.61582,-2.169491 -10.30509,-2.169491 h -8.13559 v 8.796529 8.796529 l 8.03965,-0.405985 c 5.95224,-0.300574 8.62784,-0.938293 10.30508,-2.456176 z m -0.85827,-27.639667 c 2.25095,-2.779809 2.62806,-6.743281 0.94145,-9.89474 -1.29226,-2.414614 -7.33991,-4.300584 -13.81774,-4.309085 l -4.61017,-0.006 v 8.800376 8.800376 l 7.72375,-0.436431 c 6.47088,-0.365638 8.05448,-0.844874 9.76271,-2.954447 z"
       style="fill:#2a7fff;fill-opacity:1;stroke:#2a7fff;stroke-width:1.08474576;stroke-opacity:1" />
    <path
       inkscape:connector-curvature="0"
       id="path868"
       d="m 704.61365,96.49425 c -9.48412,-4.35064 -13.56438,-11.299787 -13.54873,-23.075026 0.0218,-16.422541 8.60675,-25.869961 23.50815,-25.869961 13.24781,0 21.96668,9.343174 22.01676,23.59322 l 0.0238,6.779661 h -15.18644 c -14.22782,0 -15.18644,0.130859 -15.18644,2.073064 0,1.140186 1.50186,3.336796 3.33746,4.881356 4.11103,3.459201 9.65921,3.69083 15.61951,0.652094 l 4.22926,-2.156198 2.95213,3.51213 c 2.77765,3.30454 2.84577,3.633387 1.15265,5.563635 -5.19636,5.924109 -20.2367,8.028445 -28.91813,4.046025 z m 17.8983,-30.425579 c 0,-3.722998 -4.28828,-7.671951 -8.33118,-7.671951 -3.42919,0 -7.94,4.59392 -7.94,8.086286 0,2.712961 0.14205,2.761172 8.13559,2.761172 h 8.13559 z"
       style="fill:#2a7fff;fill-opacity:1;stroke:#2a7fff;stroke-width:1.08474576;stroke-opacity:1" />
    <path
       inkscape:connector-curvature="0"
       id="path870"
       d="m 756.68145,96.475784 c -8.78951,-4.069406 -13.56346,-12.025231 -13.55328,-22.586596 0.008,-8.727573 1.67948,-13.865781 6.10121,-18.760103 5.15017,-5.700631 11.59364,-8.046582 20.00589,-7.283787 12.35388,1.120211 18.6228,8.220344 20.09092,22.754812 l 0.7396,7.322034 h -15.87861 c -17.7484,0 -18.76987,0.529868 -12.70782,6.591916 3.97614,3.976139 10.62988,4.338122 16.29205,0.886333 l 3.73402,-2.276353 2.96808,3.63634 c 2.80313,3.434258 2.86689,3.750349 1.14732,5.687845 -5.27547,5.944079 -20.28736,8.033315 -28.93938,4.027559 z m 17.8983,-30.278516 c 0,-4.333237 -2.11032,-6.666566 -6.70353,-7.411942 -3.32436,-0.539469 -4.44707,-0.184079 -6.7761,2.144954 -1.53667,1.536667 -2.79156,4.032786 -2.79156,5.552726 0,2.712961 0.14205,2.761172 8.1356,2.761172 h 8.13559 z"
       style="fill:#2a7fff;fill-opacity:1;stroke:#2a7fff;stroke-width:1.08474576;stroke-opacity:1" />
    <path
       inkscape:connector-curvature="0"
       id="path872"
       d="M 796.27467,73.583161 V 48.634008 h 7.05084 c 6.79774,0 7.05085,0.09735 7.05085,2.711865 0,3.136617 1.26755,3.479121 3.3926,0.916714 3.98721,-4.807801 14.38884,-6.099171 20.2659,-2.516026 5.89163,3.592029 6.71438,7.173203 6.71438,29.225488 v 19.560264 h -7.05085 -7.05084 V 81.789371 c 0,-9.208619 -0.46607,-17.968802 -1.03572,-19.467072 -1.38443,-3.641334 -7.56682,-4.935264 -11.44365,-2.395074 l -2.70707,1.773746 v 18.415671 18.415671 h -7.59322 -7.59322 z"
       style="fill:#2a7fff;fill-opacity:1;stroke:#2a7fff;stroke-width:1.08474576;stroke-opacity:1" />
    <path
       inkscape:connector-curvature="0"
       id="path874"
       d="m 862.45021,74.939093 c 0.0164,-5.153668 2.77728,-10.980945 7.65303,-16.15305 2.89148,-3.067228 5.55101,-6.747299 5.91008,-8.177934 0.99582,-3.967673 -1.13047,-8.314122 -4.47835,-9.154385 -3.51519,-0.882257 -5.89601,0.430417 -7.79407,4.297292 -1.31365,2.676262 -1.91647,2.882992 -8.40678,2.882992 -6.96478,0 -6.99166,-0.01189 -6.99166,-3.093821 0,-8.392708 9.84955,-15.362684 21.65358,-15.323033 13.67728,0.04594 20.63963,5.870689 20.64745,17.273802 0.004,6.438341 -3.133,12.412205 -8.29519,15.794598 -3.33295,2.183836 -6.87781,7.906159 -6.88314,11.111166 -0.004,2.259437 -0.48736,2.440678 -6.51253,2.440678 -5.47769,0 -6.50752,-0.300646 -6.50242,-1.898305 z"
       style="fill:#2a7fff;fill-opacity:1;stroke:#2a7fff;stroke-width:1.08474576;stroke-opacity:1" />
    <path
       inkscape:connector-curvature="0"
       id="path876"
       d="m 864.28233,97.327026 c -7.80361,-4.539715 -0.93569,-15.822556 7.78151,-12.783723 3.98539,1.389314 6.30386,6.245864 4.54799,9.52675 -2.22822,4.163455 -8.10345,5.715463 -12.3295,3.256973 z"
       style="fill:#2a7fff;fill-opacity:1;stroke:#2a7fff;stroke-width:1.08474576;stroke-opacity:1" />
  </g>
  <g
     id="g991"
     transform="matrix(0.48844688,0,0,0.48844688,-4.7085089,236.13411)">
    <path
       inkscape:connector-curvature="0"
       id="path896"
       d="M 66.240767,607.27808 V 588.8374 l 7.864407,0.006 c 14.094595,0.0108 19.471186,2.89937 19.471186,10.46072 0,2.9745 -0.695309,4.6627 -2.549152,6.18931 -1.716922,1.41386 -2.100153,2.25653 -1.17385,2.58112 2.932063,1.02744 4.590799,3.8683 4.590799,7.8625 0,3.31927 -0.677737,4.73535 -3.337464,6.97336 -3.099836,2.60834 -4.103883,2.80829 -14.101695,2.80829 H 66.240767 Z m 18.905569,11.31234 c 3.945396,-3.94539 0.152347,-9.14285 -6.672355,-9.14285 -3.543133,0 -3.555248,0.0185 -3.555248,5.42373 v 5.42373 h 4.261501 c 2.427765,0 4.994996,-0.7335 5.966102,-1.70461 z m -1.478324,-14.60475 c 2.345349,-1.25519 2.789292,-5.34529 0.796484,-7.3381 -0.715932,-0.71593 -3.15661,-1.3017 -5.423729,-1.3017 h -4.122034 v 4.88136 c 0,4.72382 0.107325,4.88135 3.32555,4.88135 1.829053,0 4.269731,-0.50531 5.423729,-1.12291 z"
       style="fill:#454837;fill-opacity:1;stroke:none;stroke-width:0;stroke-opacity:0" />
    <path
       inkscape:connector-curvature="0"
       id="path898"
       d="m 100.95263,612.15943 v -13.55932 h 3.25424 c 2.16949,0 3.25424,0.54237 3.25424,1.62712 0,2.08455 1.52421,2.08455 3.25423,0 0.74272,-0.89492 2.26689,-1.62712 3.38706,-1.62712 1.61089,0 2.03667,0.80709 2.03667,3.86063 0,2.12334 -0.44717,3.58426 -0.99372,3.24648 -0.54654,-0.33779 -2.25502,-0.13461 -3.79661,0.4515 -2.71149,1.03091 -2.80289,1.36721 -2.80289,10.31285 v 9.24718 h -3.79661 -3.79661 z"
       style="fill:#454837;fill-opacity:1;stroke:none;stroke-width:0;stroke-opacity:0" />
    <path
       inkscape:connector-curvature="0"
       id="path900"
       d="m 125.02295,624.6062 c -4.56625,-2.78396 -7.15274,-8.72757 -6.25128,-14.36503 1.28514,-8.03678 5.55727,-11.64106 13.7981,-11.64106 3.55352,0 5.10352,0.7071 8.08456,3.68814 3.23943,3.23943 3.68813,4.36774 3.68813,9.2742 0,7.11094 -2.3941,11.73813 -7.08805,13.69939 -5.00992,2.09327 -7.9842,1.93384 -12.23146,-0.65564 z m 10.4246,-5.61287 c 1.92478,-1.92478 1.64246,-11.21952 -0.40291,-13.26489 -5.16974,-5.16974 -10.79913,2.4646 -8.02207,10.87919 0.98758,2.9924 1.77356,3.6874 4.17012,3.6874 1.62424,0 3.53892,-0.58577 4.25486,-1.3017 z"
       style="fill:#454837;fill-opacity:1;stroke:none;stroke-width:0;stroke-opacity:0" />
    <path
       inkscape:connector-curvature="0"
       id="path902"
       d="m 151.12421,612.43062 -3.1461,-13.28814 3.16782,-0.34769 c 1.7423,-0.19123 3.4044,-0.1111 3.69357,0.17807 0.28917,0.28916 1.06114,3.98461 1.71549,8.21209 0.65436,4.22749 1.54955,7.68635 1.98931,7.68635 0.43977,0 1.66815,-3.6843 2.72974,-8.18733 1.82144,-7.72613 2.08635,-8.16914 4.70269,-7.86441 2.46163,0.28671 3.00187,1.20175 4.81797,8.1604 1.125,4.31062 2.41935,7.60641 2.87632,7.32398 0.45697,-0.28242 1.16041,-3.35295 1.5632,-6.82339 0.92498,-7.96972 1.66956,-9.12433 5.6038,-8.68972 l 3.18332,0.35165 -3.11373,13.28814 -3.11373,13.28813 h -3.52719 c -3.48616,0 -3.55077,-0.0947 -5.5531,-8.13559 -1.11425,-4.47458 -2.33459,-8.13559 -2.71187,-8.13559 -0.37728,0 -1.59761,3.66101 -2.71186,8.13559 -1.99783,8.02283 -2.07437,8.13559 -5.52273,8.13559 h -3.49682 z"
       style="fill:#454837;fill-opacity:1;stroke:none;stroke-width:0;stroke-opacity:0" />
    <path
       inkscape:connector-curvature="0"
       id="path904"
       d="m 193.57703,625.79785 c -1.25997,-0.5407 -3.38357,-2.36613 -4.71911,-4.05651 l -2.42825,-3.07343 3.45928,-0.34709 c 2.27856,-0.22861 3.90754,0.26596 4.7726,1.44899 1.86731,2.55369 7.71481,1.78946 7.71481,-1.00827 0,-1.50181 -1.39867,-2.5517 -5.05787,-3.79661 -8.14174,-2.76992 -10.8862,-6.29116 -8.91237,-11.43486 2.87868,-7.50175 22.10583,-5.57988 22.10583,2.20961 0,1.25654 -7.13331,0.22443 -8.786,-1.27124 -2.61566,-2.36714 -6.64315,-1.05127 -6.19249,2.02323 0.25479,1.73819 1.62599,2.609 5.75815,3.65684 8.72674,2.21292 11.86083,8.37248 6.71827,13.20366 -2.80505,2.63521 -10.82454,3.99413 -14.43285,2.44568 z"
       style="fill:#454837;fill-opacity:1;stroke:none;stroke-width:0;stroke-opacity:0" />
    <path
       inkscape:connector-curvature="0"
       id="path906"
       d="m 223.52946,625.58484 c -4.28206,-1.70749 -7.5023,-5.32619 -8.24027,-9.25991 -1.77745,-9.47462 3.651,-17.72482 11.66254,-17.72482 8.23485,0 12.84836,4.49762 12.84836,12.52562 v 3.74557 h -8.81028 -8.81027 l 1.61134,2.44067 c 1.82629,2.76626 7.12402,3.75083 10.48981,1.94951 1.76677,-0.94555 2.38582,-0.76786 3.30436,0.94844 1.55957,2.91409 1.57766,2.87986 -2.55907,4.84286 -4.14661,1.9677 -7.50628,2.12318 -11.49652,0.53206 z m 8.67741,-17.00507 c 0,-4.65748 -5.32367,-6.07184 -8.07408,-2.14508 -2.5258,3.60608 -2.14281,4.09762 3.19272,4.09762 3.9774,0 4.88136,-0.36158 4.88136,-1.95254 z"
       style="fill:#454837;fill-opacity:1;stroke:none;stroke-width:0;stroke-opacity:0" />
    <path
       inkscape:connector-curvature="0"
       id="path908"
       d="m 253.04927,617.62173 c 0,-4.95694 0.0546,-6.98477 0.12146,-4.50631 0.0668,2.47847 0.0668,6.53415 0,9.01262 -0.0668,2.47847 -0.12146,0.45063 -0.12146,-4.50631 z"
       style="fill:#454837;fill-opacity:1;stroke:none;stroke-width:0;stroke-opacity:0" />
    <path
       inkscape:connector-curvature="0"
       id="path910"
       d="m 244.44699,612.44427 v -13.99831 h 4.02691 4.02691 v 1.72581 c 0,0.94921 0.0867,1.72582 0.19276,1.72582 0.10602,0 0.8153,-0.68907 1.57618,-1.53128 1.5074,-1.66851 3.40854,-2.44018 5.51786,-2.2397 l 1.3423,0.12759 0.1093,3.93103 0.10929,3.93104 h -2.71707 c -2.903,0 -4.67295,0.6271 -5.35222,1.89633 -0.23809,0.44489 -0.39488,4.25016 -0.39488,9.58392 v 8.84607 h -4.21867 -4.21867 z"
       style="fill:#454837;fill-opacity:1;stroke:none;stroke-width:0;stroke-opacity:0" />
    <path
       inkscape:connector-curvature="0"
       id="path912"
       d="m 277.81284,606.49978 v -19.94281 h 4.21867 4.21867 v 7.50844 7.50844 l 1.55012,-1.32684 c 4.25745,-3.64422 11.01277,-2.60187 13.61805,2.10127 l 1.13124,2.04217 0.12221,11.02607 0.12221,11.02607 h -4.245 -4.245 v -9.60693 c 0,-11.94638 -0.10218,-12.25346 -4.07733,-12.25346 -0.94242,0 -2.22267,0.26331 -2.845,0.58513 l -1.1315,0.58512 v 10.34507 10.34507 h -4.21867 -4.21867 z"
       style="fill:#454837;fill-opacity:1;stroke:none;stroke-width:0;stroke-opacity:0" />
    <path
       inkscape:connector-curvature="0"
       id="path914"
       d="m 308.49408,612.44427 v -13.99831 h 4.21867 4.21867 v 13.99831 13.99832 h -4.21867 -4.21867 z"
       style="fill:#454837;fill-opacity:1;stroke:none;stroke-width:0;stroke-opacity:0" />
    <path
       inkscape:connector-curvature="0"
       id="path916"
       d="m 309.94191,594.39649 c -1.30855,-0.71012 -1.83134,-1.66707 -1.83134,-3.35215 0,-2.78362 3.07796,-4.68193 6.11567,-3.77181 3.65943,1.09639 4.22051,5.59971 0.9087,7.29338 -1.16949,0.59808 -3.94565,0.50751 -5.19303,-0.16942 z"
       style="fill:#454837;fill-opacity:1;stroke:none;stroke-width:0;stroke-opacity:0" />
    <path
       inkscape:connector-curvature="0"
       id="path918"
       d="m 329.01216,626.28963 c -2.47626,-0.78314 -3.7753,-1.59764 -5.45587,-3.42084 -1.31251,-1.4239 -2.39436,-3.6557 -2.40406,-4.95942 -10e-4,-0.1582 1.7884,-0.28764 3.97684,-0.28764 h 3.97897 l 0.22663,1.13314 c 0.59778,2.98892 6.89754,3.67358 7.96511,0.86565 0.79722,-2.09684 -0.2777,-2.97654 -5.26826,-4.31148 -7.28205,-1.94789 -9.73088,-4.12738 -9.73088,-8.66064 0,-5.50183 5.11828,-8.949 12.59471,-8.48256 5.7134,0.35644 9.80843,3.22949 10.6487,7.47103 l 0.24692,1.24643 h -4.18957 -4.18956 l -0.49332,-1.36426 c -0.50746,-1.40334 -1.59251,-2.08738 -3.31109,-2.08738 -2.50012,0 -4.2693,2.23695 -3.1365,3.96581 0.70088,1.06968 1.68393,1.49076 5.98654,2.56425 1.77464,0.44277 3.85476,1.12549 4.62247,1.51715 5.61922,2.86671 6.11519,9.58854 0.9666,13.10008 -3.03723,2.07151 -9.29609,2.89295 -13.03438,1.71068 z"
       style="fill:#454837;fill-opacity:1;stroke:none;stroke-width:0;stroke-opacity:0" />
    <path
       inkscape:connector-curvature="0"
       id="path920"
       d="m 356.30129,626.28937 c -1.715,-0.63786 -3.13091,-1.86526 -4.02622,-3.49018 -0.525,-0.95283 -0.65594,-2.64989 -0.76198,-9.87552 l -0.12805,-8.72498 h -1.69443 -1.69443 v -2.87637 -2.87636 h 1.72582 1.72582 v -3.45164 -3.45164 h 4.21867 4.21868 v 3.45164 3.45164 h 2.30109 2.30109 v 2.87636 2.87637 h -2.30109 -2.30109 v 7.20146 c 0,8.59173 0.10909,8.90619 3.08987,8.90619 h 1.89583 v 2.85373 c 0,1.82238 -0.16808,2.95761 -0.46506,3.14116 -0.91219,0.56376 -6.57915,0.55547 -8.10452,-0.0119 z"
       style="fill:#454837;fill-opacity:1;stroke:none;stroke-width:0;stroke-opacity:0" />
    <path
       inkscape:connector-curvature="0"
       id="path922"
       d="m 375.719,626.29171 c -5.96065,-1.94396 -8.98204,-6.44182 -9.04423,-13.46392 -0.085,-9.60195 5.37567,-15.21923 14.27116,-14.68035 3.94603,0.23904 6.43492,1.36867 8.85869,4.02066 2.70536,2.9601 3.61274,6.03282 3.35695,11.36793 -0.30043,6.26629 -2.46522,9.9144 -7.16418,12.07311 -2.59938,1.19416 -7.676,1.53129 -10.27839,0.68257 z m 7.13645,-6.96881 c 0.64282,-0.54089 1.34542,-1.61953 1.56135,-2.39697 0.50611,-1.82222 0.50611,-7.14109 0,-8.96331 -0.54117,-1.94846 -2.32737,-3.38042 -4.21669,-3.38042 -2.22176,0 -3.33123,0.68484 -4.28945,2.64771 -0.71412,1.46284 -0.85698,2.38257 -0.83971,5.40612 0.0313,5.4767 1.39663,7.64548 4.82348,7.66178 1.37217,0.007 2.06622,-0.22198 2.96102,-0.97491 z"
       style="fill:#454837;fill-opacity:1;stroke:none;stroke-width:0;stroke-opacity:0" />
    <path
       inkscape:connector-curvature="0"
       id="path924"
       d="m 397.8532,612.44427 v -13.99831 h 3.79043 c 4.1372,0 4.24355,0.0662 4.25816,2.65254 0.005,0.86699 0.0991,0.82501 1.46203,-0.65127 1.69071,-1.83136 2.91595,-2.38479 5.2797,-2.38479 h 1.70085 v 3.9863 3.98631 l -3.03884,0.138 c -2.57766,0.11706 -3.18878,0.27887 -4.02691,1.06625 l -0.98807,0.92825 v 9.13752 9.13752 h -4.21867 -4.21868 z"
       style="fill:#454837;fill-opacity:1;stroke:none;stroke-width:0;stroke-opacity:0" />
    <path
       inkscape:connector-curvature="0"
       id="path926"
       d="m 419.80947,637.31055 c -0.32304,-0.13035 -0.4794,-1.12117 -0.4794,-3.03785 0,-2.69345 0.0458,-2.84452 0.86291,-2.84655 2.2064,-0.005 3.73434,-0.78577 4.50794,-2.30215 0.95843,-1.87867 0.95517,-2.4059 -0.0322,-5.2101 -0.43868,-1.24589 -2.59014,-7.48586 -4.78103,-13.8666 l -3.98342,-11.60134 4.49339,8.5e-4 4.49339,8.6e-4 2.07663,7.57357 c 1.14214,4.16547 2.20846,7.72521 2.36959,7.91054 0.16114,0.18534 0.75151,-1.19532 1.31194,-3.06812 1.63218,-5.45423 3.28943,-11.02032 3.49743,-11.74655 0.16866,-0.58885 0.72993,-0.67115 4.57681,-0.67115 2.41152,0 4.38459,0.15576 4.38459,0.34615 0,0.58346 -11.15979,32.33573 -11.97676,34.07676 -0.84596,1.80279 -2.51579,3.38633 -4.40621,4.17852 -1.17567,0.49266 -5.90118,0.67248 -6.9156,0.26316 z"
       style="fill:#454837;fill-opacity:1;stroke:none;stroke-width:0;stroke-opacity:0" />
    <path
       inkscape:connector-curvature="0"
       id="path928"
       d="m 460.51964,593.69036 c -2.04207,-2.04207 -1.51945,-4.8637 1.13409,-6.12288 1.6093,-0.76367 2.57586,-0.78781 4.18992,-0.10465 2.34994,0.99462 3.28174,2.95075 2.40507,5.04894 -0.74955,1.79391 -1.95974,2.48255 -4.36277,2.48255 -1.83407,0 -2.20669,-0.14434 -3.36631,-1.30396 z"
       style="fill:#454837;fill-opacity:1;stroke:none;stroke-width:0;stroke-opacity:0" />
    <path
       inkscape:connector-curvature="0"
       id="path930"
       d="m 459.59921,612.44427 v -13.99831 h 4.41043 4.41042 v 13.99831 13.99832 h -4.41042 -4.41043 z"
       style="fill:#454837;fill-opacity:1;stroke:none;stroke-width:0;stroke-opacity:0" />
    <path
       inkscape:connector-curvature="0"
       id="path932"
       d="m 473.78928,612.44427 v -13.99831 h 4.02691 4.02692 v 1.76554 1.76555 l 1.34748,-1.1831 c 1.98522,-1.74305 3.49786,-2.408 5.99226,-2.63419 2.99723,-0.27178 5.33881,0.43658 7.02841,2.12617 2.27087,2.27087 2.50653,3.74506 2.50653,15.67959 v 10.47707 h -4.21867 -4.21867 v -9.98884 -9.98883 l -0.94136,-0.94136 c -1.35303,-1.35303 -4.63817,-1.35351 -6.09768,-8.8e-4 l -1.01479,0.94048 v 9.98971 9.98972 h -4.21867 -4.21867 z"
       style="fill:#454837;fill-opacity:1;stroke:none;stroke-width:0;stroke-opacity:0" />
    <path
       inkscape:connector-curvature="0"
       id="path934"
       d="m 522.01558,626.27892 c -3.68792,-1.31609 -5.65607,-4.06163 -5.65607,-7.89016 0,-5.6476 3.53574,-8.30462 11.60134,-8.71812 l 4.12279,-0.21136 v -1.49879 c 0,-1.70546 -0.82502,-3.55482 -1.743,-3.90708 -2.04778,-0.78581 -4.49976,0.13997 -4.932,1.86215 -0.24137,0.96167 -0.26949,0.96774 -4.48473,0.96774 h -4.24183 l 0.26842,-1.24643 c 0.42329,-1.96558 1.18094,-3.17133 2.9376,-4.67496 4.82862,-4.13312 15.15752,-3.70325 18.57166,0.77291 1.82339,2.39059 2.02564,3.59645 2.05354,12.24351 0.024,7.42212 0.16834,9.21732 0.93311,11.60135 0.27566,0.85932 0.25926,0.86291 -3.93796,0.86291 h -4.21477 l -0.45385,-1.37517 -0.45385,-1.37517 -1.01408,0.97131 c -2.15452,2.06365 -6.16155,2.75546 -9.35632,1.61536 z m 6.94655,-5.44415 c 0.65617,-0.13124 1.62694,-0.64074 2.15727,-1.13224 0.84082,-0.77924 0.96424,-1.21506 0.96424,-3.40479 v -2.51116 h -1.92989 c -2.28622,0 -4.36598,0.78262 -4.94252,1.85989 -0.46965,0.87756 -0.54631,3.48881 -0.12087,4.11737 0.3517,0.51962 1.67234,1.28233 2.24728,1.29787 0.2373,0.006 0.96832,-0.0957 1.62449,-0.22694 z"
       style="fill:#454837;fill-opacity:1;stroke:none;stroke-width:0;stroke-opacity:0" />
    <path
       inkscape:connector-curvature="0"
       id="path936"
       d="m 566.02477,626.48438 c -4.52901,-1.22296 -8.24558,-4.77863 -8.24558,-7.88858 v -0.97407 h 3.75811 3.75811 l 0.49814,1.37758 c 1.25266,3.46417 8.09329,3.12454 8.09329,-0.40184 0,-1.58203 -0.6547,-1.91461 -7.8851,-4.00566 -1.4892,-0.43068 -3.42606,-1.30348 -4.30413,-1.93955 -3.93148,-2.84795 -4.20598,-8.17319 -0.59779,-11.59701 4.02741,-3.82162 13.45189,-3.95478 17.91813,-0.25317 1.53864,1.27522 2.89959,3.71212 2.91429,5.21831 0.008,0.84308 -0.0885,0.86291 -4.21025,0.86291 -3.88053,0 -4.21867,-0.0581 -4.21867,-0.72455 0,-2.28743 -3.81696,-3.57286 -5.84861,-1.96963 -0.78103,0.61634 -1.05467,1.17102 -1.05467,2.1379 0,1.73098 0.90459,2.2892 5.58951,3.44928 5.65514,1.40032 7.79831,2.67073 9.02982,5.35258 1.91695,4.17451 -0.12055,8.48846 -5.02856,10.64687 -1.9002,0.83565 -8.09619,1.26755 -10.16604,0.70863 z"
       style="fill:#454837;fill-opacity:1;stroke:none;stroke-width:0;stroke-opacity:0" />
    <path
       inkscape:connector-curvature="0"
       id="path938"
       d="m 586.54285,617.81349 v -19.36753 h 3.79412 c 3.99992,0 4.25971,0.1187 4.25971,1.94641 0,0.63473 0.23281,0.55542 1.73458,-0.59091 4.70225,-3.58931 11.57797,-1.54494 14.23844,4.23353 2.35961,5.12501 2.15121,13.22559 -0.45464,17.67215 -2.8998,4.94812 -9.16886,6.65539 -13.42432,3.65587 l -1.71055,-1.20571 v 6.51186 6.51186 h -4.21867 -4.21867 z m 15.4984,1.31275 c 1.35071,-1.60523 1.57035,-2.60394 1.55389,-7.06548 -0.0152,-4.1218 -0.52095,-5.71913 -2.17833,-6.88 -1.25875,-0.88167 -4.19053,-0.7756 -5.42611,0.19631 l -1.01051,0.79487 v 6.03511 c 0,4.25193 0.14165,6.21266 0.4794,6.63601 0.80567,1.00986 1.93045,1.43942 3.80106,1.45162 1.53256,0.01 1.92928,-0.15671 2.7806,-1.16844 z"
       style="fill:#454837;fill-opacity:1;stroke:none;stroke-width:0;stroke-opacity:0" />
    <path
       inkscape:connector-curvature="0"
       id="path940"
       d="m 616.45706,612.44427 v -13.99831 h 4.02692 4.02691 v 1.72581 c 0,0.94921 0.0867,1.72582 0.19276,1.72582 0.10601,0 0.7982,-0.67016 1.5382,-1.48924 1.65592,-1.83291 3.02794,-2.43132 5.21534,-2.27467 l 1.6828,0.12052 0.12142,2.30109 c 0.0668,1.2656 0.0131,3.03457 -0.11937,3.93103 l -0.24081,1.62995 h -2.48839 c -2.66824,0 -4.46446,0.66482 -5.12355,1.89633 -0.2381,0.44489 -0.39488,4.25016 -0.39488,9.58392 v 8.84607 h -4.21868 -4.21867 z"
       style="fill:#454837;fill-opacity:1;stroke:none;stroke-width:0;stroke-opacity:0" />
    <path
       inkscape:connector-curvature="0"
       id="path942"
       d="m 645.02897,626.30996 c -4.04006,-1.33794 -7.15607,-3.99626 -8.75651,-7.47031 -1.20976,-2.62601 -1.17585,-9.65757 0.0616,-12.7798 1.14747,-2.89513 3.43583,-5.41146 6.11978,-6.72945 1.95781,-0.96141 2.60066,-1.0762 6.02673,-1.0762 3.42763,0 4.06844,0.11455 6.03049,1.07804 4.24329,2.08371 6.34023,5.84864 6.71554,12.05736 l 0.21444,3.54752 h -8.90305 -8.90305 l 0.25674,0.86291 c 0.47131,1.58409 1.89056,3.34571 3.19832,3.96987 2.09752,1.0011 6.05819,0.61056 8.09035,-0.79772 l 1.6203,-1.12287 1.67384,1.89967 c 0.92061,1.04481 1.68047,2.0831 1.68857,2.30731 0.0272,0.75109 -2.07302,2.41543 -4.39569,3.48349 -1.87021,0.86 -2.94742,1.07874 -5.75274,1.16817 -2.13065,0.0679 -4.03874,-0.0844 -4.9857,-0.39799 z m 7.86207,-17.9221 c 0,-2.32987 -1.59141,-3.80566 -4.10384,-3.80566 -2.71401,0 -4.12873,1.25536 -4.86226,4.31455 l -0.25289,1.05467 h 4.6095 4.60949 z"
       style="fill:#454837;fill-opacity:1;stroke:none;stroke-width:0;stroke-opacity:0" />
    <path
       inkscape:connector-curvature="0"
       id="path944"
       d="m 669.60876,626.22274 c -3.60001,-1.31902 -5.59577,-4.13472 -5.59577,-7.89474 0,-5.59999 4.6749,-8.76009 12.95923,-8.76009 h 2.85989 l -0.18021,-2.17305 c -0.13756,-1.65879 -0.38575,-2.33949 -1.04876,-2.87637 -1.71009,-1.38474 -5.38578,-0.53298 -5.38578,1.24804 0,1.05544 -0.48896,1.16017 -4.83278,1.03508 l -3.82213,-0.11007 0.33318,-1.68084 c 0.50828,-2.5642 3.24324,-5.11781 6.58759,-6.15077 6.75061,-2.08505 13.54383,-0.0629 15.75695,4.69046 0.88716,1.90545 0.92697,2.33579 0.93055,10.05973 0.003,5.92499 0.15661,8.65601 0.57902,10.27775 0.3164,1.21475 0.57528,2.2865 0.57528,2.38167 0,0.0952 -1.88502,0.17305 -4.18893,0.17305 h -4.18893 l -0.45385,-1.37517 -0.45384,-1.37517 -1.01408,0.97131 c -2.1806,2.08863 -6.16913,2.74904 -9.41663,1.55918 z m 8.94462,-6.21554 c 0.8815,-0.65653 1.00454,-1.0441 1.10467,-3.47972 l 0.11268,-2.7409 h -1.87715 c -3.73753,0 -5.44325,1.30902 -5.44325,4.17734 0,2.91696 3.40113,4.05565 6.10305,2.04328 z"
       style="fill:#454837;fill-opacity:1;stroke:none;stroke-width:0;stroke-opacity:0" />
    <path
       inkscape:connector-curvature="0"
       id="path946"
       d="m 699.48818,626.24914 c -2.18457,-0.77368 -4.86832,-3.73158 -5.91527,-6.51951 -1.04972,-2.79533 -1.44973,-8.23443 -0.84305,-11.46345 0.81628,-4.34457 3.01194,-7.80343 5.90241,-9.29816 2.83755,-1.46735 7.91993,-0.92929 9.68924,1.02578 0.37492,0.41429 0.82751,0.75325 1.00575,0.75325 0.17825,0 0.32408,-3.19277 0.32408,-7.09504 v -7.09504 h 4.21867 4.21867 v 19.94281 19.94281 h -3.83515 -3.83516 v -1.31967 c 0,-1.73679 -0.45214,-1.94567 -1.57419,-0.72725 -2.06313,2.24033 -6.03944,3.02805 -9.356,1.85347 z m 8.98319,-6.93568 1.17997,-0.99288 v -5.87631 -5.8763 l -1.17997,-0.99289 c -1.59345,-1.3408 -4.44548,-1.40689 -5.60853,-0.12997 -1.3634,1.49689 -1.73585,2.62281 -1.93766,5.85755 -0.23852,3.82321 0.37319,6.68237 1.71724,8.02641 1.38962,1.38963 4.16776,1.38219 5.82895,-0.0156 z"
       style="fill:#454837;fill-opacity:1;stroke:none;stroke-width:0;stroke-opacity:0" />
    <path
       inkscape:connector-curvature="0"
       id="path948"
       d="m 729.78591,626.31388 c -3.54837,-1.17828 -5.91587,-3.10266 -7.14449,-5.80727 -1.28934,-2.83829 -1.23667,-2.88488 3.26139,-2.88488 h 3.97898 l 0.22662,1.13314 c 0.60268,3.01336 6.85467,3.68443 7.84551,0.84211 0.77947,-2.236 0.0604,-2.79029 -5.79879,-4.46976 -4.25865,-1.2207 -5.96389,-2.08938 -7.47098,-3.80586 -3.37412,-3.84292 -1.90161,-9.35034 3.18418,-11.90933 2.14964,-1.08163 2.57876,-1.15709 6.51976,-1.14648 4.48152,0.0121 5.85772,0.3797 8.65732,2.31276 1.49061,1.02923 2.80413,3.09246 3.22044,5.05856 l 0.26393,1.24643 h -4.1721 -4.1721 l -0.46363,-1.28215 c -1.20526,-3.33309 -6.97725,-2.61905 -6.97725,0.86315 0,1.30438 1.67179,2.26655 5.71327,3.28817 4.7491,1.20049 6.42048,1.99572 8.01758,3.81472 3.49361,3.979 2.09555,9.15427 -3.17371,11.74832 -2.22633,1.09602 -2.97503,1.26076 -6.25545,1.3764 -2.41014,0.085 -4.2683,-0.0486 -5.26048,-0.37803 z"
       style="fill:#454837;fill-opacity:1;stroke:none;stroke-width:0;stroke-opacity:0" />
    <path
       inkscape:connector-curvature="0"
       id="path952"
       d="m 750.6875,606.49978 v -19.94281 h 4.21867 4.21868 v 7.51829 7.51828 l 1.41029,-1.23825 c 1.85598,-1.62958 3.52738,-2.29332 5.7683,-2.29071 2.89507,0.003 4.74666,0.70023 6.48837,2.44195 2.56926,2.56926 2.8242,3.99938 2.8242,15.84251 v 10.09355 h -4.21867 -4.21867 v -9.37116 c 0,-9.46917 -0.18638,-11.00387 -1.45326,-11.96638 -0.90132,-0.68478 -4.09474,-0.64842 -5.46906,0.0623 l -1.1315,0.58512 v 10.34507 10.34507 h -4.21868 -4.21867 z"
       style="fill:#454837;fill-opacity:1;stroke:none;stroke-width:0;stroke-opacity:0" />
    <path
       inkscape:connector-curvature="0"
       id="path954"
       d="m 790.38136,626.48933 c -7.39824,-1.93754 -11.07272,-7.91591 -10.12263,-16.46948 0.57411,-5.1686 2.99753,-8.78399 7.2131,-10.76091 1.86712,-0.8756 2.63545,-1.00417 5.97766,-1.00032 4.3744,0.005 6.304,0.69496 8.84454,3.1623 2.37474,2.30632 3.37416,5.00239 3.55316,9.58517 l 0.15355,3.93103 h -8.71418 -8.71417 l 0.25883,1.03128 c 0.37104,1.47833 1.62689,3.10822 2.90364,3.76845 2.30845,1.19375 7.05359,0.4818 9.00454,-1.35102 0.7751,-0.72817 0.79402,-0.71681 2.67349,1.60505 l 1.89286,2.3384 -1.5177,1.28843 c -2.27586,1.93204 -5.17447,2.9163 -8.99626,3.0548 -1.79293,0.065 -3.77763,-0.0175 -4.41043,-0.18318 z m 7.47856,-17.43947 c 0,-2.81535 -1.70001,-4.46766 -4.59664,-4.46766 -2.02685,0 -3.24418,0.82633 -3.99995,2.71517 -1.07824,2.6948 -1.13956,2.65405 3.9944,2.65405 4.57542,0 4.60219,-0.005 4.60219,-0.90156 z"
       style="fill:#454837;fill-opacity:1;stroke:none;stroke-width:0;stroke-opacity:0" />
    <path
       inkscape:connector-curvature="0"
       id="path956"
       d="m 818.92617,626.3017 c -5.37493,-1.44924 -9.1647,-5.93499 -9.76719,-11.5609 -0.3613,-3.37379 0.37926,-7.54666 1.81854,-10.24703 1.34564,-2.52468 2.57816,-3.70107 5.44169,-5.19387 1.73322,-0.90355 2.40042,-1.02256 5.79394,-1.03342 3.23716,-0.0104 4.15087,0.13039 5.8599,0.90271 4.458,2.0146 6.98787,6.62703 6.98787,12.74021 v 3.02772 h -8.6291 c -7.96306,0 -8.62899,0.0518 -8.62766,0.67116 0.002,1.08922 1.43049,3.11301 2.77555,3.9331 2.28948,1.39592 7.12077,0.83557 9.23735,-1.07136 0.69855,-0.62936 0.80668,-0.56923 2.61287,1.45281 l 1.88417,2.10933 -1.76641,1.62395 c -3.03947,2.79434 -8.86996,3.92674 -13.62152,2.64559 z m 7.93198,-17.98022 c -0.35835,-2.36484 -1.96607,-3.73928 -4.37396,-3.73928 -1.0044,0 -2.18726,0.2529 -2.62856,0.56201 -0.93236,0.65305 -2.05291,2.83761 -2.05291,4.00226 0,0.77334 0.18265,0.80495 4.65121,0.80495 h 4.6512 z"
       style="fill:#454837;fill-opacity:1;stroke:none;stroke-width:0;stroke-opacity:0" />
    <path
       inkscape:connector-curvature="0"
       id="path958"
       d="m 845.73901,626.47449 c -1.94127,-0.62874 -3.32311,-1.69581 -4.21805,-3.25724 -0.85891,-1.49855 -0.9045,-1.95824 -1.02087,-10.29358 l -0.1218,-8.72498 h -1.69989 -1.6999 v -2.87637 -2.87636 h 1.72582 1.72582 v -3.45164 -3.45164 h 4.21867 4.21867 v 3.45164 3.45164 h 2.3011 2.30109 v 2.87636 2.87637 h -2.30109 -2.3011 v 7.20146 c 0,8.59173 0.1091,8.90619 3.08987,8.90619 h 1.89583 v 2.85373 c 0,1.82238 -0.16807,2.95761 -0.46506,3.14116 -0.6874,0.42484 -6.46807,0.55578 -7.64911,0.17326 z"
       style="fill:#454837;fill-opacity:1;stroke:none;stroke-width:0;stroke-opacity:0" />
  </g>
</svg>
